<?xml version="1.0" standalone="no"?>
<!DOCTYPE svg PUBLIC "-//W3C//DTD SVG 1.1//EN" "http://www.w3.org/Graphics/SVG/1.1/DTD/svg11.dtd" >
<!--
2013-9-30: Created.
-->
<svg>
<metadata>
Created by iconfont
</metadata>
<defs>

<font id="iconfont" horiz-adv-x="1024" >
  <font-face
    font-family="iconfont"
    font-weight="500"
    font-stretch="normal"
    units-per-em="1024"
    ascent="896"
    descent="-128"
  />
    <missing-glyph />
    
    <glyph glyph-name="x" unicode="x" horiz-adv-x="1001"
d="M281 543q-27 -1 -53 -1h-83q-18 0 -36.5 -6t-32.5 -18.5t-23 -32t-9 -45.5v-76h912v41q0 16 -0.5 30t-0.5 18q0 13 -5 29t-17 29.5t-31.5 22.5t-49.5 9h-133v-97h-438v97zM955 310v-52q0 -23 0.5 -52t0.5 -58t-10.5 -47.5t-26 -30t-33 -16t-31.5 -4.5q-14 -1 -29.5 -0.5
t-29.5 0.5h-32l-45 128h-439l-44 -128h-29h-34q-20 0 -45 1q-25 0 -41 9.5t-25.5 23t-13.5 29.5t-4 30v167h911zM163 247q-12 0 -21 -8.5t-9 -21.5t9 -21.5t21 -8.5q13 0 22 8.5t9 21.5t-9 21.5t-22 8.5zM316 123q-8 -26 -14 -48q-5 -19 -10.5 -37t-7.5 -25t-3 -15t1 -14.5
t9.5 -10.5t21.5 -4h37h67h81h80h64h36q23 0 34 12t2 38q-5 13 -9.5 30.5t-9.5 34.5q-5 19 -11 39h-368zM336 498v228q0 11 2.5 23t10 21.5t20.5 15.5t34 6h188q31 0 51.5 -14.5t20.5 -52.5v-227h-327z" />
    

    
    <glyph glyph-name="jiaoyin" unicode="&#983679;" d="M355.064966 737.093731c0-87.81145-71.144689-158.954184-158.959855-158.954184-87.76823 0-158.914874 71.143711-158.914874 158.954184 0 87.764514 71.146645 158.906269 158.914874 158.906269C283.920179 896 355.064966 824.858244 355.064966 737.093731zM569.619936 816.522908c0-43.903818-35.572882-79.476114-79.480417-79.476114s-79.479439 35.571318-79.479439 79.476114c0 43.905774 35.571905 79.477092 79.479439 79.477092S569.619936 860.428682 569.619936 816.522908zM800.050885 796.689106c0-43.905774-35.571905-79.477092-79.479439-79.477092s-79.480417 35.571318-79.480417 79.477092 35.572882 79.477092 79.480417 79.477092C764.479078 876.167078 800.050885 840.594783 800.050885 796.689106zM986.808884 693.373649c0-43.905774-35.572882-79.477092-79.480417-79.477092-43.907534 0-79.479439 35.571318-79.479439 79.477092s35.571905 79.477092 79.479439 79.477092C951.235024 772.850741 986.808884 737.279325 986.808884 693.373649zM284.478234 488.745065c0 0 50.658275 140.050605 244.353489 163.88897 0 0 299.017305 20.858875 350.513983-273.953799 25.142907-144.055071 14.667168-456.095496-216.417567-503.585458-55.780807-11.45456-217.534558 2.79282-196.674802 148.802209 7.356515 51.635238 55.780807 135.674754 0 208.585233C427.514294 283.139224 233.81996 298.038337 284.478234 488.745065"  horiz-adv-x="1024" />

    
    <glyph glyph-name="fanhui" unicode="&#13364;" d="M141.8576 318.0088 516.3211-56.4203c0 0 37.4352 74.6304 37.4352 76.0564 0 0.1809-299.5572 298.5746-299.5572 298.3637 0-0.7155 299.5572 299.6448 299.5572 299.5609 0-0.7685-37.4352 74.8862-37.4352 74.8862L141.8576 318.0088zM291.8981 355.4324h598.8485334841706v-74.87523459094734h-598.8485334841706l-37.699 37.4436L291.8981 355.4324z"  horiz-adv-x="1000" />

    
    <glyph glyph-name="msnui-arrow-up" unicode="&#58989;" d="M446-69.333q-41.999 0-57 20t-15 64v63q0 43.001-0.5 91.5t-0.5 94.5v73q0 38-7.5 60.5t-34.5 21.5q-20 0-47.5 1.001t-48.5 1q-35 0-44.5 19t13.5 49q24 30 56.5 71t66.5 83.5 67 84 58 73.5q24 30 45.5 30.5t44.5-27.5q24.001-28 55.5-67t65-81 66.5-82.5 59-72.5q28-35 21.5-57.5t-42.5-22.5h-25q-13.999 0-29.001-0.5t-29.5-1-25.5-0.5q-25-1-31.5-16t-6.5-41q0-29 0.5-76.001t0.5-98 0.5-99 0.5-78q0-12.999-2-27t-9.5-25.5-21-19-35.5-7.5q-27 0-52-0.5t-56-0.501z"  horiz-adv-x="1024" />

    
    <glyph glyph-name="horn" unicode="&#58900;" d="M511.219 825.517l-227.213-227.313-161.038 0c-41.846 0-75.781-33.935-75.781-75.781l0-303.097c0-41.882 33.935-75.782 75.781-75.782l161.037 0 227.213-227.377c41.845 0 75.748 33.934 75.748 75.78l0 757.789c0.001 41.846-33.901 75.781-75.746 75.781zM511.219-5.427l-198.83 219.372-189.421 0 0 303.093 189.421 0 198.83 219.402 0-741.868zM960.31 337.605c7.483 0 13.534 14.892 13.534 33.239s-6.051 33.239-13.534 33.239l-94.755 0c-7.482 0-13.533-14.889-13.533-33.239 0-18.347 6.051-33.239 13.533-33.239l94.755 0zM970.582 767.156c6.484 3.743 4.277 19.663-4.897 35.552s-21.858 25.759-28.341 22.017l-82.059-47.376c-6.483-3.743-4.277-19.663 4.897-35.552s21.859-25.758 28.342-22.016l82.058 47.375zM970.582-25.47c6.484-3.743 4.277-19.662-4.897-35.553-9.174-15.888-21.858-25.759-28.341-22.016l-82.059 47.376c-6.483 3.743-4.277 19.662 4.897 35.552 9.174 15.889 21.859 25.758 28.342 22.016l82.058-47.375zM640.286 200.588c-6.756 18.186-4.889 35.436 13.299 42.194 45.93 21.204 67.853 62.464 73.459 114.215 6.541 60.379-22.355 115.869-72.24 138.725-16.317 10.496-23.073 28.677-12.579 44.995 10.497 16.316 28.683 23.073 44.995 12.579 73.893-42.911 118.17-117.522 108.828-203.777-7.477-69.002-49.452-134.269-113.569-162.23-14.983-8.481-35.07-2.914-42.193 13.294z"  horiz-adv-x="1024" />

    
    <glyph glyph-name="shuzi4" unicode="&#59034;" d="M323.634639 373.817806l-63.990551-60.248634L231.371831 343.693489c-14.854274 15.04326-23.849993 31.636203-25.172892 46.679463-0.52916 5.971947 0.037797 16.555145 0.226783 31.636203L236.625633 748.765392 303.375374 812l53.70973-63.234608L323.634639 373.817806zM647.064729 360.286431l55.108224-61.76052-73.175255-58.736749L380.557126 239.789163c-13.569172 0-22.602687 0-27.251735 1.511885-13.531375 0-30.766868 7.52163-38.968847 15.04326l-38.175107 40.631921 68.261627 63.272405L647.064729 360.248634zM738.533798-151.751366l-65.502436-60.248634-54.957035 60.248634 33.563856 373.511295 64.255131 57.224863 56.204341-57.224863L738.533798-151.751366zM784.41952 373.817806l-65.502436-60.248634-53.596338 61.76052 32.20316 371.923815L764.160256 812l53.860918-64.746493L784.41952 373.817806z"  horiz-adv-x="1024" />

    
    <glyph glyph-name="shuzi8" unicode="&#59038;" d="M303.949341-78.369478l-75.716278-64.503333-29.16907 35.334263c-8.47714 9.209257-14.179944 21.501111-15.37445 35.29573-0.539454 6.165193 0.346792 13.79462 1.194506 21.501111l19.651553 231.81126c2.735804 21.501111 8.900998 38.416859 21.655241 50.631648l52.519739 49.128882 52.288544-53.714245L303.949341-78.369478zM344.177225 374.502486l-64.118008-56.796841-30.440641 32.213134c-13.524892 13.79462-22.772682 32.251666-24.005721 46.046286-0.655052 7.667959 0.077065 16.877216 0.655052 27.666304l18.572644 208.768851c2.04222 29.16907 8.63127 41.422391 29.785589 62.923502L312.619143 735.243346l57.952815-66.006098L344.177225 374.502486zM633.440378-89.158566l61.613398-72.171292-31.36542-27.627772c-21.269916-19.959813-30.247979-23.042409-70.129071-23.042409L337.164318-212.000039c-38.378327 0-54.138102 4.623895-69.551084 23.042409l-23.774526 26.125006 82.613587 73.674057L633.440378-89.158566zM673.899458 360.669334l56.180322-62.962034L661.646137 237.866394 356.122287 237.866394l-57.451893 59.879438 68.202448 62.962034L673.899458 360.707866zM393.421705 689.158528 332.501891 753.66186l30.941563 32.251666C381.669306 805.873339 394.963003 812 421.049477 812l277.857546 0c24.583707 0 38.917781-6.126661 54.484894-26.086473l28.822278-30.7489-80.224575-66.006098L393.421705 689.158528zM678.716015 217.906582l68.318046 61.382204 33.792965-35.29573c10.134036-10.750555 15.952437-24.545175 17.301073-39.919625 0.809182-9.170725 0.077065-18.418514-0.539454-29.16907l-20.036878-227.187365c-0.462389-12.291854-2.735804-21.501111-3.891778-26.086473-2.273415-9.209257-7.706491-16.915749-23.389201-30.710368l-38.378327-35.334263-59.494113 66.044631L678.716015 217.906582zM718.9439 670.778546l78.683277 66.006098L823.174195 707.615575c10.288166-12.291854 15.952437-24.583707 17.031346-36.837029 0.655052-7.667959-0.192662-15.335918-0.924779-24.583707l-18.765306-224.104769c-4.315635-38.378327-12.060659-55.294075-33.446172-73.71259l-36.952626-33.754432-57.451893 59.879438L718.9439 670.778546z"  horiz-adv-x="1024" />

    
    <glyph glyph-name="shuzi9" unicode="&#59039;" d="M323.039165 377.54655 258.921157 320.749709l-36.875561 35.334263c-11.829464 12.214789-15.721242 21.462578-16.800151 33.754432-0.924779 10.712023-1.001844 29.16907 0.577987 46.046286l17.5708 202.64219c4.469765 36.837029 10.789088 52.172946 32.097536 72.171292l35.411328 33.754432 59.609711-67.547397L323.039165 377.54655zM609.489449-89.158566l61.035412-66.006098-34.024159-32.251666c-19.76715-19.959813-34.717744-24.583707-71.554772-24.583707L271.752465-212.000039l-60.495957 59.879438 71.246513 62.962034L609.489449-89.158566zM364.423024 237.866394c-30.710368 0-40.343482 4.585362-60.765684 27.627772l-29.16907 35.29573 69.974941 59.91797 302.441253 0 57.451893-59.91797L636.153909 237.866394 364.423024 237.866394zM374.056138 689.158528 311.055571 759.827054l25.508486 24.583707C362.149609 807.414638 374.056138 812 418.561125 812l233.352558 0c50.631648 0 58.607867-3.044064 80.686964-27.627772l22.11763-24.583707-79.800718-70.629993L374.056138 689.158528zM657.423825 222.491944l68.279513 61.420736 54.523426-61.420736-22.695617-267.145523c-3.313791-32.213134-8.515673-42.963689-29.901186-61.382204l-36.952626-33.792965-59.494113 66.006098L657.423825 222.491944zM697.767307 673.82261l75.562148 66.044631 27.396577-32.251666c11.829464-12.291854 17.493735-24.583707 18.418514-35.29573 0.693584-7.706491-0.15413-15.37445-0.770649-26.125006l-23.350669-259.400499-70.591461-70.629993-52.712401 58.33814L697.767307 673.82261z"  horiz-adv-x="1024" />

    
    <glyph glyph-name="tubiao207" unicode="&#58942;" d="M511.872081 799.712501c229.419881 0 416.077839-186.657957 416.077839-416.077839 0-229.417835-186.657957-416.075792-416.077839-416.075792-229.417835 0-416.079886 186.657957-416.079886 416.075792C95.792195 613.054544 282.454246 799.712501 511.872081 799.712501M511.872081 863.724398c-265.174892 0-480.091782-214.979315-480.091782-480.089735 0-265.109397 214.91689-480.091782 480.091782-480.091782 265.050042 0 480.089735 214.982385 480.089735 480.091782C991.960793 648.745083 776.922123 863.724398 511.872081 863.724398L511.872081 863.724398zM648.461357 374.633229c-21.631684 22.131081-68.639509 47.885864-130.649723 67.637644-36.881725 11.754259-58.137837 20.877471-58.137837 48.882612 0 39.011327 24.628068 47.762038 55.758536 47.762038 24.005868 0 59.264551-29.004959 59.264551-52.51143l95.267214 22.37771c0 18.134879-13.879768 48.265529-41.258615 71.767906-22.005209 18.752986-50.634596 29.630229-85.391835 33.380826l0 50.381827-63.38458 0 0-50.50463c-36.759945-4.50174-62.635484-16.505697-84.767588-35.26073-22.752258-19.12958-36.755852-50.882248-36.755852-82.388287 0-36.509223 5.623337-68.012192 26.003458-90.14532 20.252201-22.249791 93.518299-47.129604 129.772707-55.256069 35.008984-7.877789 67.391016-29.882998 67.640714-60.514068 0.374548-37.383169-34.006096-51.509565-62.761356-51.509565-48.258365 0-80.640397 35.881906-80.640397 67.260026l-95.393086-23.376505c6.124781-33.257 15.626635-59.759855 46.758126-84.516866 23.503401-18.877835 51.386762-30.378302 90.143274-35.003868l0-60.140543 63.38458 0 0 59.261481c36.257478 2.876652 66.760629 16.877175 92.017037 35.510428 29.758148 22.249791 45.385807 50.631526 45.385807 92.514388C680.716493 324.249355 669.965122 352.254496 648.461357 374.633229z"  horiz-adv-x="1025" />

    
    <glyph glyph-name="xiangshang" unicode="&#58902;" d="M897.070634 446.388932 511.721149 831.975824 129.77825 450.032926 175.002244 404.807908 479.687572 709.494259 479.687572-62.579011 543.644209-62.579011 543.644209 709.368392 851.84664 401.165961Z"  horiz-adv-x="1024" />

    
    <glyph glyph-name="iconfontadd" unicode="&#58906;" d="M863.328 413.44l-317.344 1.12L545.984 733.184c0 17.664-14.336 32-32 32s-32-14.336-32-32l0-318.4L159.616 415.936c-0.032 0-0.064 0-0.096 0-17.632 0-31.936-14.24-32-31.904C127.424 366.368 141.728 352 159.392 351.936l322.592-1.152 0-319.168c0-17.696 14.336-32 32-32s32 14.304 32 32l0 318.944 317.088-1.12c0.064 0 0.096 0 0.128 0 17.632 0 31.936 14.24 32 31.904C895.264 399.008 880.96 413.376 863.328 413.44z"  horiz-adv-x="1024" />

    
    <glyph glyph-name="daojishi" unicode="&#58889;" d="M449.59694 343.539512c-2.589471 0-5.210911 0.319688-7.800382 0.959063C313.729623 376.691138 224.280976 491.331184 224.280976 623.266341L224.280976 735.157073c0 17.646767 14.322014 31.96878 31.96878 31.96878s31.96878-14.322014 31.96878-31.96878l0-111.890732c0-102.587817 69.564066-191.716777 169.114849-216.748332 17.134267-4.315785 27.52512-21.674833 23.241303-38.778131C476.930248 353.194084 463.886985 343.539512 449.59694 343.539512L449.59694 343.539512zM574.40306 343.539512c-14.290045 0-27.301339 9.654572-30.977748 24.168398-4.315785 17.134267 6.074068 34.493315 23.208336 38.777132C666.217397 431.549565 735.781463 520.678525 735.781463 623.266341L735.781463 735.157073c0 17.646767 14.290045 31.96878 31.96878 31.96878s31.96878-14.322014 31.96878-31.96878l0-111.890732c0-131.935157-89.448648-246.575204-217.483614-278.767766C579.613971 343.8592 576.992531 343.539512 574.40306 343.539512zM767.750244-0.124878c-17.678736 0-31.96878 14.322014-31.96878 31.96878l0 95.906341c0 102.619785-69.564066 191.748745-169.114849 216.748332-17.134267 4.283817-27.52512 21.674833-23.241303 38.778131 4.347754 17.134267 21.930583 27.397245 38.777132 23.208336C710.270377 374.357417 799.719024 259.71737 799.719024 127.750244l0-95.906341C799.719024 14.197136 785.42898-0.124878 767.750244-0.124878zM256.249756-0.124878c-17.646767 0-31.96878 14.322014-31.96878 31.96878l0 95.906341c0 131.967126 89.448648 246.607173 217.516581 278.767766 17.167235 4.18791 34.461346-6.074068 38.777132-23.209335 4.315785-17.134267-6.074068-34.493315-23.241303-38.777132C357.750634 319.498989 288.218537 230.370029 288.218537 127.750244l0-95.906341C288.218537 14.197136 273.896523-0.124878 256.249756-0.124878zM863.656585 703.188293 160.343415 703.188293c-17.646767 0-31.96878 14.322014-31.96878 31.96878L128.374634 863.032195c0 17.646767 14.322014 31.96878 31.96878 31.96878l703.313171 0c17.678736 0 31.96878-14.322014 31.96878-31.96878l0-127.875122C895.625366 717.510306 881.335321 703.188293 863.656585 703.188293zM192.312195 767.125854l639.37561 0L831.687805 831.063415 192.312195 831.063415 192.312195 767.125854zM863.656585-128 160.343415-128c-17.646767 0-31.96878 14.322014-31.96878 31.96878L128.374634 31.843902c0 17.646767 14.322014 31.96878 31.96878 31.96878l703.313171 0c17.678736 0 31.96878-14.322014 31.96878-31.96878l0-127.875122C895.625366-113.677986 881.335321-128 863.656585-128zM192.312195-64.062439l639.37561 0 0 63.937561L192.312195-0.124878 192.312195-64.062439z"  horiz-adv-x="1024" />

    
    <glyph glyph-name="shizhong" unicode="&#58921;" d="M512.001012-128c-282.773537 0-512.000512 229.227997-512.000512 511.999488 0 282.773537 229.226974 512.000512 512.000512 512.000512 282.771491 0 511.998465-229.226974 511.998465-512.000512C1023.999477 101.227997 794.771479-128 512.001012-128zM512.001012 831.000223C265.13529 831.000223 65.000277 630.864187 65.000277 383.999488c0-246.862652 200.135013-446.999711 446.999711-446.999711 246.863675 0 447.001758 200.137059 447.001758 446.999711C959.001746 630.864187 758.864687 831.000223 512.001012 831.000223zM482.000406 350.999743l-0.999713 351.000639 63.000351 0 0-319.000607 197.998471-166.000486-39.000071-54.999575L482.000406 350.999743z"  horiz-adv-x="1024" />

    
    <glyph glyph-name="zanting" unicode="&#58994;" d="M295.539828-101.33632C295.539828-162.411025 244.662019-211.92163 181.907531-211.92163 119.146182-211.92163 68.266667-162.411025 68.266667-101.33632L68.266667 701.412983C68.266667 762.487757 119.146182 812 181.907531 812 244.662019 812 295.539828 762.487757 295.539828 701.412983L295.539828-101.33632 295.539828-101.33632ZM888.277299-101.33632C888.277299-162.411025 837.397777-211.92163 774.643289-211.92163 711.881946-211.92163 661.002424-162.411025 661.002424-101.33632L661.002424 701.412983C661.002424 762.487757 711.881946 812 774.643289 812 837.397777 812 888.277299 762.487757 888.277299 701.412983L888.277299-101.33632 888.277299-101.33632Z"  horiz-adv-x="1024" />

    
    <glyph glyph-name="xiangshang1" unicode="&#58933;" d="M766.815466 513.558826 510.881473 832.181518 254.914732 513.558826 441.061012 513.558826 441.061012-62.561546 580.674303-62.561546 580.674303 513.558826Z"  horiz-adv-x="1025" />

    
    <glyph glyph-name="kechengbiao" unicode="&#58924;" d="M851.084789 797.641855l-65.592904 0c-17.451464 0-31.600719-14.149255-31.600719-31.600719s14.149255-31.600719 31.600719-31.600719l65.592904 0c16.108886 0 29.224602-13.115716 29.224602-29.224602l0-110.340037L174.773536 594.875778 174.773536 705.216839c0 16.108886 13.115716 29.224602 29.224602 29.224602L269.560342 734.441441c17.451464 0 31.600719 14.149255 31.600719 31.600719s-14.150278 31.599695-31.600719 31.599695l-65.562205 0c-50.964742 0-92.426039-41.460274-92.426039-92.426039l0-653.79954c0-50.949392 41.460274-92.409666 92.426039-92.409666L851.084789-40.99339c50.965765 0 92.426039 41.460274 92.426039 92.409666l0 653.800563C943.510828 756.181581 902.050554 797.641855 851.084789 797.641855zM851.084789 22.208047 203.998137 22.208047c-16.108886 0-29.224602 13.100366-29.224602 29.209252l0 480.258065 705.535855 0 0-480.258065C880.30939 35.308413 867.193675 22.208047 851.084789 22.208047zM459.379549 734.441441l136.740314 0c17.451464 0 31.600719 14.149255 31.600719 31.600719s-14.149255 31.600719-31.600719 31.600719L459.379549 797.642878c-17.451464 0-31.600719-14.149255-31.600719-31.600719S441.928085 734.441441 459.379549 734.441441zM364.591719 689.661561c17.453511 0 31.600719 17.10047 31.600719 38.188764L396.192438 804.230923c0 21.092387-14.147208 38.188764-31.600719 38.188764-17.449417 0-31.600719-17.096377-31.600719-38.188764l0-76.380598C332.991 706.762031 347.142302 689.661561 364.591719 689.661561zM690.922019 689.661561c17.449417 0 31.600719 17.10047 31.600719 38.188764L722.522738 804.230923c0 21.092387-14.151301 38.188764-31.600719 38.188764s-31.600719-17.096377-31.600719-38.188764l0-76.380598C659.3213 706.762031 673.472602 689.661561 690.922019 689.661561zM748.753145 409.917276 306.34513 409.917276c-17.453511 0-31.600719-14.147208-31.600719-31.600719 0-17.449417 14.147208-31.600719 31.600719-31.600719l442.408015 0c17.451464 0 31.600719 14.151301 31.600719 31.600719C780.353864 395.770068 766.204609 409.917276 748.753145 409.917276zM748.753145 218.339006 306.34513 218.339006c-17.453511 0-31.600719-14.147208-31.600719-31.600719 0-17.449417 14.147208-31.600719 31.600719-31.600719l442.408015 0c17.451464 0 31.600719 14.151301 31.600719 31.600719C780.353864 204.191798 766.204609 218.339006 748.753145 218.339006z"  horiz-adv-x="1024" />

    
    <glyph glyph-name="iconset0445" unicode="&#59204;" d="M974.933333 590.933333l-234.666667 256C736 851.2 731.733333 853.333333 725.333333 853.333333c-6.4 0-10.666667-2.133333-14.933333-6.4l-234.666667-256C471.466667 586.666667 469.333333 582.4 469.333333 576c0-12.8 8.533333-21.333333 21.333333-21.333333l104.533333 0c-2.133333-44.8-14.933333-157.866667-66.133333-281.6C441.6 64 283.733333-42.666667 64-42.666667c-12.8 0-21.333333-8.533333-21.333333-21.333333 0-12.8 8.533333-21.333333 21.333333-21.333333 699.733333 0 780.8 526.933333 789.333333 640l106.666667 0c12.8 0 21.333333 8.533333 21.333333 21.333333C981.333333 582.4 979.2 586.666667 974.933333 590.933333zM832 597.333333c-12.8 0-21.333333-8.533333-21.333333-21.333333l0-21.333333c-6.4-93.866667-55.466667-430.933333-443.733333-554.666667 234.666667 157.866667 268.8 467.2 273.066667 554.666667l0 21.333333c0 12.8-8.533333 21.333333-21.333333 21.333333l-78.933333 0L725.333333 800l185.6-202.666667L832 597.333333z"  horiz-adv-x="1024" />

    
    <glyph glyph-name="dianping" unicode="&#58963;" d="M818.732963 687.777655c-8.163937 30.466895-27.702945 55.929824-55.019081 71.701019l-96.015797 55.434543c-56.388265 32.55444-128.750339 13.165858-161.304779-43.221384L209.587436 257.607358c-5.41022-4.086062-8.756431-10.701736-8.363482-17.98256l15.232936-282.377252c0.384763-7.143701 4.366448-13.605879 10.574846-17.163915 3.243881-1.860371 6.864338-2.793626 10.488889-2.793626 3.313465 0 6.631024 0.780783 9.667174 2.346441L497.492588 68.705034c4.306072 2.220574 7.503904 5.726421 9.411347 9.79918l279.395338 483.926618c0.296759 0.434905 0.61296 0.849344 0.881067 1.311879 0.357134 0.618077 0.677429 1.248434 0.964978 1.885953l18.789948 32.54523C822.707484 625.49003 826.895877 657.311783 818.732963 687.777655zM589.014024 785.958768c19.584034 5.244444 40.034808 2.555196 57.59065-7.581676l96.015797-55.434543c17.556864-10.135848 30.113855-26.501584 35.361369-46.083571 5.246491-19.580964 2.554172-40.033785-7.581676-57.59065l-9.30083-16.109909L533.629623 734.488513l9.30083 16.109909C553.066301 768.154263 569.43306 780.712277 589.014024 785.958768zM512.535189 697.952388l227.468688-131.329071L496.90828 145.569656l-4.188392 19.609617c-2.114151 9.900487-10.859325 16.692171-20.60734 16.692171-1.394766 0-2.809999-0.140193-4.229325-0.428765l-50.179866-10.211573-13.875009 46.64025c-3.116991 10.475586-13.71435 16.838503-24.430412 14.654768l-50.011021-10.18906-13.328563 46.080501c-1.577938 5.455245-5.288446 10.042727-10.290367 12.726859-5.004991 2.688225-10.878768 3.238764-16.295128 1.539053l-20.392446-6.40692L512.535189 697.952388zM244.301052 224.274182l37.225833 11.69332 12.739139-44.045145c3.053546-10.559497 13.69286-17.005302 24.476461-14.809287l50.15633 10.219759 13.873985-46.638203c3.116991-10.475586 13.71435-16.836457 24.426319-14.654768l48.627511 9.896394 7.93574-37.156248L256.827343-7.925251 244.301052 224.274182z"  horiz-adv-x="1024" />

    
    <glyph glyph-name="guanbi" unicode="&#58931;" d="M825.173652-9.525702c21.502733-21.503756 56.491619-21.503756 77.996398 0 21.503756 21.503756 21.503756 56.492642 0 77.996398L589.32511 382.313591l3.618411 3.617387 310.225507 310.227554c10.416234 10.416234 16.152888 24.26566 16.152888 38.997176s-5.736655 28.580942-16.152888 38.997176c-21.502733 21.502733-56.491619 21.503756-77.996398 0L511.330758 460.30999 197.485817 774.152884c-10.751878 10.751878-24.874527 16.127306-38.997176 16.127306-14.123672 0-28.246321-5.375427-38.998199-16.127306-10.417257-10.416234-16.153912-24.26566-16.153912-38.997176s5.736655-28.580942 16.153912-38.997176l313.843918-313.844941L119.490441 68.470697c-21.503756-21.503756-21.503756-56.492642 0-77.996398s56.492642-21.50478 77.995375 0L511.329734 304.318216 825.173652-9.525702z"  horiz-adv-x="1024" />

    
    <glyph glyph-name="jiangli" unicode="&#58892;" d="M512 874.240198C313.517519 874.240198 152.612964 713.335642 152.612964 514.858027c0-198.481265 160.904555-359.38582 359.387036-359.38582 198.477616 0 359.382171 160.904555 359.382171 359.38582C871.382171 713.335642 710.477616 874.240198 512 874.240198L512 874.240198zM512 203.392424c-172.017988 0-311.465602 139.447614-311.465602 311.465602 0 172.017988 139.447614 311.465602 311.465602 311.465602 172.013123 0 311.465602-139.447614 311.465602-311.465602C823.465602 342.840038 684.013123 203.392424 512 203.392424L512 203.392424zM512 203.392424M512 778.403411c-145.55836 0-263.55025-117.99189-263.55025-263.545385 0-145.557144 117.99189-263.549034 263.55025-263.549034 145.553495 0 263.545385 117.99189 263.545385 263.549034C775.545385 660.411522 657.553495 778.403411 512 778.403411L512 778.403411zM512 299.224345c-119.093867 0-215.628816 96.539814-215.628816 215.633681 0 119.089002 96.534949 215.628816 215.628816 215.628816 119.093867 0 215.628816-96.539814 215.628816-215.628816C727.628816 395.764159 631.093867 299.224345 512 299.224345L512 299.224345zM512 299.224345M735.559163 275.244775l91.427659-177.177579c-37.135189 14.505724-80.019879 13.721203-118.22907-5.991548-38.209191-19.722482-63.699419-54.220708-73.397066-92.886016l-91.422794 177.167849-31.937892-16.487095 134.930236-261.464277 3.207412-6.223863 31.937892 16.482229-3.207412 6.223863c-27.304964 52.91439-6.552267 117.949319 46.362123 145.254283 52.924121 27.300099 117.944454 6.537671 145.259148-46.376719l3.207412-6.214132 31.937892 16.472499-3.217142 6.223863L767.495839 291.717274 735.559163 275.244775 735.559163 275.244775zM735.559163 275.244775M273.39872 246.105615 197.013177 98.067196c37.130323 14.505724 80.015014 13.721203 118.22907-5.986682 38.204326-19.727347 63.694554-54.225573 73.397066-92.890881l81.868672 158.653164 39.226027-2.360859L377.064899-101.592674l-3.206196-6.223863-31.937892 16.482229 3.207412 6.223863c27.304964 52.91439 6.551051 117.949319-46.358474 145.254283-52.92777 27.300099-117.948102 6.537671-145.262797-46.376719l-3.207412-6.214132L118.361648 24.024269l3.217142 6.223863L246.602174 272.532402 273.39872 246.105615 273.39872 246.105615zM273.39872 246.105615"  horiz-adv-x="1024" />

    
    <glyph glyph-name="gouhao" unicode="&#58932;" d="M511.006881 831.407889c-247.195985 0-447.565479-200.369493-447.565479-447.566502 0-247.168356 200.369493-447.566502 447.565479-447.566502 247.168356 0 447.566502 200.398146 447.566502 447.566502C958.573383 631.038396 758.175237 831.407889 511.006881 831.407889zM511.006881 0.623449c-211.645304 0-383.217938 171.59924-383.217938 383.217938 0 211.646328 171.572634 383.217938 383.217938 383.217938s383.217938-171.572634 383.217938-383.217938C894.22482 172.223712 722.652186 0.623449 511.006881 0.623449zM706.369338 510.280078c-11.580756 0-22.099321-4.700045-29.706579-12.308327L454.6135 275.418003l-137.570215 138.074705c-7.608282 7.609305-18.098193 12.308327-29.706579 12.308327-23.161512 0-41.958624-18.769482-41.958624-41.959647 0-11.580756 4.670369-22.043039 12.252045-29.622668l167.277818-167.837566c7.580652-7.580652 18.098193-12.308327 29.706579-12.308327 11.609409 0 22.099321 4.700045 29.707602 12.308327l0-0.028653 251.754814 252.343215c7.553023 7.580652 12.252045 18.070564 12.252045 29.65132C748.327962 491.508549 729.53085 510.280078 706.369338 510.280078z"  horiz-adv-x="1024" />

    
    <glyph glyph-name="shouqi" unicode="&#59211;" d="M512.001023 498.611318l374.767476-374.388852 72.665996 72.591295-447.430402 446.965821L64.565505 196.812737l72.672136-72.591295 374.767476 374.388852L512.001023 498.610294z"  horiz-adv-x="1024" />

    
    <glyph glyph-name="down" unicode="&#58884;" d="M548.096 149.44l396.992 396.992c19.904 19.904 19.904 52.224 0 72.192-19.904 19.904-52.224 19.904-72.192 0l-360.896-360.96-360.896 360.896c-19.904 19.904-52.224 19.904-72.192 0-19.904-19.904-19.904-52.224 0-72.192l396.992-396.992c19.968-19.904 52.224-19.904 72.192 0.064z"  horiz-adv-x="1024" />

    
    <glyph glyph-name="jiaoyinzujifangke" unicode="&#59518;" d="M320 768c0 70.656-57.344 128-128 128S64 838.656 64 768s57.344-128 128-128S320 697.344 320 768zM544 704C596.992 704 640 747.008 640 800S596.992 896 544 896 448 852.992 448 800 491.008 704 544 704zM864 832C811.008 832 768 788.992 768 736S811.008 640 864 640 960 683.008 960 736 916.992 832 864 832zM537.088 638.784C460.032 640 372.352 628.096 302.144 565.888 231.872 503.68 240.64 348.288 339.968 306.496c99.392-41.728 121.28-113.92 94.656-203.776C408 12.864 453.44-64 567.04-64 762.88-64 832 119.488 832 325.056 832 548.608 744.128 635.648 537.088 638.784z"  horiz-adv-x="1024" />

    
    <glyph glyph-name="shuzi1" unicode="&#58914;" d="M416.116778 774.434796 358.155952 829.15439 426.75564 896l220.289268 0L513.315556 774.434796 416.116778 774.434796zM496.194233 327.831385l64.977136 56.24488L617.759438 327.831385 582.410961-67.217398l-66.082967-60.782602L460.883889-67.217398 496.194233 327.831385zM533.563713 751.669919l132.280331 120.001787L628.360168 449.358457l-67.188799-65.320325-54.338274 65.320325L533.563713 751.669919z"  horiz-adv-x="1024" />

    
    <glyph glyph-name="shuzi7" unicode="&#58920;" d="M303.741413 774.434796 247.305873 829.15439 314.380275 896l445.116258 0L624.28003 774.434796 303.741413 774.434796zM607.158707 327.831385l67.989573 56.24488 53.537499-56.24488-35.462873-393.485365-64.443286-62.307887L571.695834-65.692113 607.158707 327.831385zM644.528186 751.669919l132.165934 121.565204-37.369479-423.838534-64.176361-65.320325-57.350711 65.320325L644.528186 751.669919z"  horiz-adv-x="1024" />

    
    <glyph glyph-name="gou1" unicode="&#59156;" d="M421.775 5.325c60.131 109.856 270.225 306.337 420.244 406.631l58.95 36c23.231 12.544 43.537 21.15 59.738 24.75-46.238 105.412-5.681 191.081 0.9 289.913l0 0c-55.744-28.519-111.994-68.794-166.219-114.694l-62.775-56.419c-180.787-171.281-324.844-382.387-324.844-382.387l-105.581 204.3-239.85-116.606c101.475-36.169 256.725-165.15 359.156-291.431z"  horiz-adv-x="1024" />

    
    <glyph glyph-name="shuzi0" unicode="&#58917;" d="M305.535186 8.723386l-78.409237-69.084895-23.619097 24.582355c-11.944405 13.832391-19.265168 27.626253-20.49814 41.458643-0.385304 4.58511 0.577955 10.749964 0.192651 15.296544l27.39507 300.921936 65.347453 59.876145L333.39262 321.89797 305.535186 8.723386zM344.142584 444.694156l-68.198697-62.958571-54.636019 62.958571 22.694369 267.0923c3.005367 18.456032 3.583321 29.167466 4.58511 35.33232 1.849456 13.793861 8.592265 24.582355 21.461398 35.293789l41.304522 36.835003 59.606433-67.543682L344.142584 444.694156zM627.571748-5.109005l66.310711-73.670005-34.137879-30.747209c-14.140634-13.75533-30.631618-18.417501-59.799084-18.417501L329.770769-127.943722c-29.167466 0-46.583178 6.164854-58.411991 18.417501l-27.279479 30.747209 82.609044 73.670005L627.571748-5.109005zM393.692599 773.165284 329.578116 839.167752l29.552769 30.747209C377.471326 888.332463 395.233812 896 418.236423 896l280.924691 0c21.499929 0 42.383371-10.749964 56.023111-26.085038l24.042931-29.205996-80.066041-67.543682L393.692599 773.165284zM680.319779 321.89797l68.275758 61.378828 54.520427-61.378828-22.809959-265.589617c-1.310032-19.958715-3.313609-32.249892-2.928306-36.873533-1.849456-13.75533-8.746387-23.002612-23.002612-35.255259l-44.50254-35.293789-56.023111 61.378828L680.319779 321.89797zM719.466602 751.703885 799.378523 820.788781l18.764274-21.499929c13.63974-15.335075 20.960503-29.167466 22.309065-44.50254 0.539424-6.164854 1.07885-12.291178 0.077061-18.417501l-25.12178-291.674656-69.855502-61.455889-52.979214 61.455889L719.466602 751.703885z"  horiz-adv-x="1024" />

    
    <glyph glyph-name="shuzi5" unicode="&#58922;" d="M344.615008 460.043784l-65.543709-58.33814-28.899343 32.213134c-15.181788 15.335918-22.657085 30.710368-24.121318 47.549052-0.539454 6.165193-1.194506 13.833152-0.462389 23.080942l33.369108 373.032714 111.782657-119.720343L344.615008 460.043784zM627.828565-5.158566l64.541865-70.629993-31.249822-29.16907c-18.341449-18.418514-34.833341-23.042409-70.129071-23.042409L293.174178-128.000039l-57.413361 59.879438 68.163916 62.962034L627.828565-5.158566zM395.477851 773.158528 281.884168 896l449.789368 0 57.798685-64.503333-68.549241-58.33814L395.477851 773.158528zM634.571745 444.669334c36.837029 0 41.730651-3.044064 68.818968-32.290199l27.12685-29.16907L657.575622 321.866394 408.887146 321.866394c-47.587584 0-58.761997 4.585362-84.077821 30.710368l-27.12685 29.16907 71.246513 62.962034L634.571745 444.707866zM678.88407 306.491944l68.433643 59.879438 30.325043-30.710368c11.829464-12.253321 19.535956-30.710368 20.768994-44.504988 0.655052-7.667959 0.192662-19.959813-0.115597-33.792965l-18.726774-207.227552c-2.928467-36.837029-11.790932-58.376672-26.047941-70.629993l-42.693962-38.378327-57.837218 64.503333L678.88407 306.491944z"  horiz-adv-x="1024" />

    
    <glyph glyph-name="zuocehua" unicode="&#59133;" d="M511.174-58.931c243.404 0 440.719 197.315 440.719 440.718s-197.315 440.725-440.719 440.725c-243.407 0-440.725-197.322-440.725-440.725 0-243.402 197.315-440.718 440.725-440.718v0zM371.373 403.883l188.94 213.253c11.18 12.609 29.308 12.609 40.486 0 11.183-12.637 11.183-33.065 0-45.687l-168.701-190.394 168.7-190.394c11.183-12.647 11.183-33.090 0-45.695-11.182-12.634-29.308-12.634-40.486 0l-188.939 213.23c-11.18 12.609-11.18 33.070 0 45.683v0zM371.373 403.883z"  horiz-adv-x="1024" />

    
    <glyph glyph-name="liuyan" unicode="&#58882;" d="M367.494327 396.102642c0-28.535917-23.164582-51.606355-51.744501-51.606355-28.534893 0-51.699476 23.070438-51.699476 51.606355 0 28.534893 23.164582 51.699476 51.699476 51.699476C344.329744 447.802118 367.494327 424.636512 367.494327 396.102642L367.494327 396.102642zM367.494327 396.102642M959.966103 424.730657c0 215.271902-201.053062 390.428154-448.248024 390.428154-247.200078 0-448.25314-175.157275-448.25314-390.428154 0-127.884622 72.03871-247.666706 192.861496-320.646857l0-123.081223c0-8.764618 4.802376-16.763802 12.477172-20.813025 3.53143-1.977028 7.249101-2.918469 11.254322-2.918469 4.611018 0 9.133008 1.316995 13.08911 3.950985l56.783261 37.480636c1.085728 0.661056 2.121314 1.508353 2.732228 2.077312l64.222697 42.75271c32.021298-6.027274 63.944358-9.138124 94.925976-9.138124C758.913041 34.485675 959.966103 209.553922 959.966103 424.730657L959.966103 424.730657zM291.731806 138.358417C178.44874 202.205561 110.879831 309.278181 110.879831 424.824801c0 189.092659 179.816388 342.969259 400.833131 342.969259 221.022882 0 400.838248-153.875576 400.838248-342.969259 0-189.094706-179.86653-342.970282-400.833131-342.970282-30.887474 0-62.904679 3.393283-95.114265 10.076496-6.120394 1.410116-12.620435 0.093121-17.98563-3.487428l-75.149561-50.096978c-1.036609-0.561795-2.539846-1.883907-2.539846-1.883907l-17.137309-11.298324 0 92.568279C303.790446 126.299777 299.12417 134.121929 291.731806 138.358417L291.731806 138.358417zM291.731806 138.358417M572.078819 410.606984c0-28.535917-23.164582-51.797713-51.79362-51.797713-28.5308 0-51.699476 23.261797-51.699476 51.797713 0 28.5308 23.168676 51.606355 51.699476 51.606355C548.913213 462.212316 572.078819 439.136761 572.078819 410.606984L572.078819 410.606984zM572.078819 410.606984M774.264681 410.606984c0-28.535917-23.168676-51.797713-51.699476-51.797713-28.535917 0-51.704592 23.261797-51.704592 51.797713 0 28.5308 23.168676 51.606355 51.704592 51.606355C751.096005 462.212316 774.264681 439.136761 774.264681 410.606984L774.264681 410.606984zM774.264681 410.606984"  horiz-adv-x="1024" />

    
    <glyph glyph-name="guihua" unicode="&#58883;" d="M786.285714 470.928457 786.285714 741.321143 512 896 237.714286 741.321143l0-270.392686L0 336.892343 0 26.642286 274.285714-128l237.714286 133.999543L749.714286-128l274.285714 154.642286L1024 336.892343 786.285714 470.928457zM749.714286 223.429486l-163.927771 92.4288L749.714286 408.250514l163.927771-92.392229L749.714286 223.429486zM310.857143 657.963886l164.571429-92.785371 0-184.8576-164.571429 92.785371L310.857143 657.963886zM548.571429 380.320914 548.571429 565.178514l164.571429 92.785371L713.142857 473.106286 548.571429 380.320914zM438.213486 315.856457 274.285714 223.429486l-163.927771 92.4288L274.285714 408.250514 438.213486 315.856457zM310.857143 160.714971l164.571429 92.785371 0-184.821029-164.571429-92.750629L310.857143 160.714971zM675.893029 720.250514 512 627.856457l-163.893029 92.392229L512 812.679314 675.893029 720.250514zM73.142857 253.500343l164.571429-92.785371 0-184.786286-164.571429 92.750629L73.142857 253.500343zM548.571429 253.500343l164.571429-92.785371 0-184.786286-164.571429 92.750629L548.571429 253.500343zM786.285714-24.071314 786.285714 160.714971l164.571429 92.785371 0-184.821029L786.285714-24.071314z"  horiz-adv-x="1024" />

    
    <glyph glyph-name="liuyan1" unicode="&#59040;" d="M395.701 461.451c0-25.716-18.369-47.759-47.759-47.759-25.716 0-47.759 22.043-47.759 47.759 0 25.716 22.042 47.759 47.759 47.759 29.391 0 47.759-22.043 47.759-47.759v0zM943.095 487.167c0 198.385-183.69 360.032-411.465 360.032-231.449 0-415.138-161.647-415.138-360.032 0-117.562 66.129-227.775 176.341-293.903v-113.888c0-11.021 7.348-18.369 14.694-22.042 0 0 3.674 0 7.348 0 7.348 0 11.021 0 14.694 3.674l51.434 33.065c0 0 0 0 3.674 3.674l58.78 36.739c29.391-3.674 58.78-7.348 88.171-7.348 227.775 0 411.465 161.647 411.465 360.032v0zM325.898 222.654c-102.865 58.78-165.321 157.972-165.321 264.513 0 172.669 165.321 315.946 371.053 315.946 202.058 0 367.379-143.278 367.379-315.946 0-172.669-165.321-315.946-367.379-315.946-29.391 0-58.78 3.674-88.171 7.348-7.348 3.674-14.694 0-18.369 0l-69.801-47.759c0 0 0 0 0 0l-18.369-11.021v84.497c0 7.348-3.674 14.694-11.021 18.369v0zM586.737 472.47c0-25.716-22.042-47.759-47.759-47.759s-47.759 22.042-47.759 47.759c0 29.391 22.042 47.759 47.759 47.759 25.716 0 47.759-18.369 47.759-47.759v0zM770.428 472.47c0-25.716-18.369-47.759-47.759-47.759-25.716 0-47.759 22.042-47.759 47.759 0 29.391 22.042 47.759 47.759 47.759 29.391 0 47.759-18.369 47.759-47.759v0z"  horiz-adv-x="1071" />

    
    <glyph glyph-name="shuzi2" unicode="&#59146;" d="M309.935797 10.215886 177.499744-108.040223l32.482861 365.364754c0.770649 9.209257 1.502766 18.457047 3.891778 26.125006 2.427545 7.667959 4.932154 13.794619 9.132192 18.457047 0 0 8.554205 7.667959 22.657085 21.501111l41.037066 39.881093 50.747245-53.714245L309.935797 10.215886zM656.650842-5.158564l56.064724-61.420736-66.776747-61.420736L194.569622-128.000036l138.17739 122.841472L656.650842-5.158564zM690.636469 343.328974c-16.954281-16.877216-30.363576-21.501111-65.659306-21.501111L360.95277 321.827863 305.042175 381.707301l43.695806 44.504987c5.625739 6.126661 12.869841 10.750555 20.268072 13.833152 7.398232 3.044064 13.409295 4.585362 21.077254 4.585362l24.583707 0 265.604224 0 55.872062-59.91797L690.636469 343.328974zM382.877738 773.158528 326.967143 833.076498 392.048462 896l313.191808 0c30.671835 0 45.198572-7.667959 62.26845-27.627771l20.576332-24.583707-78.259419-70.629993L382.877738 773.158528zM725.431277 753.237248l79.762185 70.629993 27.242447-30.710368c3.352324-3.082597 7.089972-10.750555 11.097348-21.501111 1.926623-4.623895 2.35048-9.24779 2.735804-13.833152 0.539454-6.126661-0.038532-16.877216-0.385325-30.710368l-21.578176-227.187364c-2.19635-27.666304-7.359699-38.416859-27.126849-58.338139l-42.578365-39.919625-55.756465 58.338139L725.431277 753.237248z"  horiz-adv-x="1024" />

    
    <glyph glyph-name="shuzi3" unicode="&#59147;" d="M606.286201-5.158566l63.000567-70.629993-32.636991-30.710368c-17.069878-15.297385-36.490237-21.501111-71.785967-21.501111L265.505153-128.000039 209.594558-68.120601l77.373173 62.962034L606.286201-5.158566zM645.242515 444.669334l58.993191-59.91797L634.491959 321.866394 316.714788 321.866394l-60.804217 62.923502 71.51624 59.91797L645.242515 444.707866zM355.516972 773.158528l-57.413361 59.91797L366.267528 896l302.441253 0c13.833152 0 23.158007-1.502766 26.240603-1.502766 10.904685-1.541298 27.203914-12.291854 40.805872-27.704836l20.576332-24.545175-81.457614-69.088695L355.516972 773.158528zM652.987538 303.44788l69.589617 64.4648 27.011252-27.627772c15.297385-16.877216 20.961656-29.16907 22.464422-46.084818 0.693584-7.667959 1.348636-15.297385 0.462389-23.003877l-22.002033-239.517751c-2.19635-27.627772-8.7854-39.919625-30.093849-59.879438l-35.681055-30.710368-57.952815 66.044631L652.987538 303.44788zM693.215423 756.319844l80.031913 67.547397 20.306605-21.501111c11.983594-13.833152 19.304761-27.666304 20.653397-43.002222 0.539454-6.126661-0.038532-16.877216-1.541298-35.29573l-20.422202-222.602003c-2.04222-29.16907-7.244102-39.919625-24.198383-56.796841l-45.352702-42.963689-57.336296 58.33814L693.215423 756.319844z"  horiz-adv-x="1024" />

    
    <glyph glyph-name="shuzi6" unicode="&#59150;" d="M326.20594 10.215884l-75.562148-66.006098-27.280979 30.710368c-11.945062 13.756087-17.493735 24.545175-18.572644 36.837029-0.539454 6.165193 0.038532 16.877216 0.770649 26.125006l23.119474 262.521628 70.976785 66.006098 52.558271-56.796841L326.20594 10.215884zM366.703552 460.043784l-65.505177-58.33814-57.336296 58.33814 22.541487 268.648289c3.467921 30.710368 8.515673 43.002222 29.939719 61.420736l37.068223 32.251666 59.378516-64.503333L366.703552 460.043784zM649.955642-5.158566l63.116164-72.171292-25.624084-23.003877c-25.624084-23.042409-39.033379-27.666304-82.0356-27.666304L372.059564-128.000039c-50.670181 0-58.607867 3.082597-80.686964 27.666304l-21.9635 23.003877 79.646588 72.171292L649.955642-5.158566zM659.742886 444.669334c30.710368 0 40.15082-3.044064 60.611554-26.125006l29.16907-35.334263L679.664166 321.866394 377.222913 321.866394l-57.56749 61.382204 68.318046 61.459269L659.742886 444.707866zM414.522331 773.158528 352.061219 837.66186l35.411328 33.754432C407.393827 889.873339 422.19029 896 459.027319 896l293.231996 0 60.495957-59.879438-71.246513-62.962034L414.522331 773.158528zM700.972615 306.491944l65.659306 56.796841 35.44986-36.837029c11.829464-12.253321 15.567113-19.959813 16.761619-33.754432 0.809182-9.209257 0.886247-27.666304-0.732117-44.504988l-17.5708-202.64219c-4.469765-36.875561-10.789088-52.211479-32.097536-72.171292l-35.411328-33.792965-59.648243 67.585929L700.972615 306.491944z"  horiz-adv-x="1024" />

    
    <glyph glyph-name="changshibaike" unicode="&#58923;" d="M502.677333 619.029333 868.949333 755.242667 854.592 793.984 501.333333 662.634667 148.096 793.984 133.696 755.242667 499.989333 619.029333 500.309333 618.154667 501.333333 618.538667 502.357333 618.154667ZM502.08 554.922667 10.901333 707.776 10.666667 95.466667l492.352-183.786667L992 95.466667 992 715.754667 502.08 554.922667zM53.546667 649.813333l432.234667-134.485333 0-548.352L53.333333 125.248 53.546667 649.813333zM949.333333 124.8l-429.781333-164.821333L519.552 515.776 949.333333 656.832 949.333333 124.8z"  horiz-adv-x="1024" />

    
    <glyph glyph-name="shezhi" unicode="&#58948;" d="M640.516 7.05C640.516 7.05 640.516 7.05 640.516 7.05c-13.9 0.002-27.404 6.01-36.132 16.066-11.886 13.62-49.55 49.036-80.378 49.036-30.616 0-68.862-35.622-79.844-48.1-8.706-9.886-22.12-15.79-35.882-15.79-6.556 0-12.742 1.314-18.39 3.908l-0.988 0.452-93.706 54.758-0.93 0.68c-17.06 12.484-23.554 36.89-15.102 56.782 0.064 0.152 8.642 20.834 8.642 39.696 0 57.234-44.558 103.804-99.332 103.804l-3.32 0c-0.202-0.008-0.402-0.01-0.604-0.01-15.69 0-28.462 14.56-32.542 37.104-0.328 1.804-7.998 44.562-7.998 78.244 0 33.69 7.668 76.446 7.994 78.248 4.134 22.826 17.186 37.492 33.15 37.096l3.322 0c54.772 0 99.332 46.566 99.332 103.804 0 18.854-8.574 39.534-8.662 39.742-8.442 19.87-1.906 44.274 15.224 56.714l0.968 0.706 98.898 56.764 1.028 0.458c5.57 2.482 11.668 3.738 18.128 3.738 13.73 0 27.174-5.774 35.958-15.448 11.704-12.808 48.704-46.116 78.65-46.116 29.662 0 66.438 32.652 78.1 45.232 8.732 9.478 22.078 15.152 35.678 15.152 6.59 0 12.802-1.302 18.462-3.872l0.998-0.454 95.52-55.458 0.944-0.688c17.088-12.464 23.598-36.874 15.138-56.776-0.062-0.152-8.642-20.836-8.642-39.694 0-57.24 44.562-103.804 99.332-103.804l3.32 0c15.944 0.37 29.016-14.268 33.146-37.096 0.33-1.802 8-44.558 8-78.246 0-33.684-7.67-76.442-8-78.246-4.13-22.826-17.202-37.436-33.148-37.094l-3.318 0c-54.77 0-99.332-46.57-99.332-103.804 0-18.856 8.574-39.53 8.66-39.738 8.44-19.86 1.916-44.264-15.188-56.72l-0.958-0.698-97.126-56.098-1.01-0.458C653.016 8.318 646.936 7.05 640.516 7.05L640.516 7.05zM637.564 54.874c0.436-0.296 1.66-0.804 2.95-0.804 0.056 0 0.104 0 0.15 0.004l90.744 52.418c-2.19 5.314-12.208 31.124-12.208 58.044 0 80.51 60.684 146.488 136.756 150.62 1.098 6.316 7.04 41.854 7.04 68.526 0 26.664-5.94 62.194-7.038 68.528-76.074 4.128-136.758 70.108-136.758 150.62 0 26.958 10.048 52.8 12.22 58.076l-89.276 51.834c-0.102 0.008-0.226 0.012-0.372 0.012-1.522 0-2.946-0.58-3.416-0.91-1.496-1.608-14.44-15.322-33.028-28.988-27.512-20.23-53.536-30.486-77.334-30.486-24.034 0-50.262 10.458-77.954 31.086-18.702 13.93-31.702 27.906-33.204 29.546-0.476 0.336-1.916 0.932-3.45 0.932-0.12 0-0.226-0.002-0.318-0.008l-92.468-53.076c2.216-5.384 12.196-31.146 12.196-58.016 0-80.51-60.682-146.49-136.758-150.62-1.096-6.324-7.04-41.862-7.04-68.528 0-26.664 5.942-62.194 7.042-68.528 76.076-4.128 136.756-70.108 136.756-150.618 0-27.01-10.084-52.898-12.234-58.108l87.518-51.142c0.056-0.004 0.122-0.004 0.194-0.004 1.28 0 2.494 0.492 2.922 0.78 1.636 1.838 14.71 16.296 33.534 30.714 28.066 21.496 54.736 32.392 79.27 32.392 24.77 0 51.636-11.104 79.87-33.012C622.808 71.462 635.932 56.736 637.564 54.874L637.564 54.874zM524.326 245.962c-72.942 0-132.284 62.018-132.284 138.242 0 76.222 59.342 138.238 132.284 138.238 72.944 0 132.286-62.014 132.286-138.238C656.612 307.98 597.27 245.962 524.326 245.962L524.326 245.962zM524.326 475.422c-48.13 0-87.29-40.92-87.29-91.216 0-50.298 39.16-91.218 87.29-91.218 48.134 0 87.292 40.92 87.292 91.218C611.62 434.502 572.462 475.422 524.326 475.422L524.326 475.422z"  horiz-adv-x="1024" />

    
    <glyph glyph-name="xiayiyeshi" unicode="&#59288;" d="M156.512 834.307c13.494 0 27.347-3.064 40.686-9.715l713.074-356.162c67.138-33.53 67.138-129.189 0-162.708l-713.074-356.162c-13.338-6.664-27.19-9.727-40.686-9.727-47.785 0-91.087 38.36-91.087 91.075l-0 712.322c0 52.727 43.301 91.075 91.087 91.075z"  horiz-adv-x="1024" />

    
    <glyph glyph-name="shangyiyeshi" unicode="&#59301;" d="M866.561-61.193c-13.494 0-27.347 3.064-40.686 9.716l-713.073 356.162c-67.138 33.53-67.138 129.189 0 162.708l713.074 356.162c13.338 6.664 27.19 9.727 40.686 9.727 47.785 0 91.087-38.36 91.087-91.075v-712.324c-0.001-52.725-43.302-91.074-91.088-91.074z"  horiz-adv-x="1024" />

    
    <glyph glyph-name="cup" unicode="&#58885;" d="M820.245634 551.461659V863.949922h-615.361503v-310.885759c0-76.920188 36.85759-142.622848 84.932708-195.505478 0-1.602504 1.602504-1.602504 1.602504-1.602503 54.485133-59.292645 123.392801-102.56025 174.672926-129.802817l8.01252-4.807512v-92.945227h-48.075118V54.685446h44.87011v-16.025039c0-83.330203-133.007825-99.355243-179.480438-102.560251V-97.552426h440.688576v32.050079c-46.472613 3.205008-179.480438 19.230047-179.480439 102.56025v16.025039h44.87011V126.798122h-48.075117v92.945227l8.012519 4.807512c97.752739 52.882629 261.208138 163.455399 262.810642 326.910798zM964.470986 790.234742c-44.87011 28.84507-84.932707 20.832551-112.175274 6.410015V896h-679.461659v-97.752739c-27.242567 14.422535-67.305164 20.832551-112.175274-8.012519-27.242567-17.627543-41.665102-54.485133-38.460094-102.560251 6.410016-118.58529 100.957746-282.040689 246.785603-357.358372 54.485133-57.690141 120.187793-100.957746 173.070422-128.200313v-41.665102h-48.075117V22.635368h40.062598c-19.230047-43.267606-118.58529-54.485133-160.250391-54.485133h-16.025039v-96.150235h504.788732v96.150235h-16.025039c-38.460094 0-139.41784 12.820031-160.250391 54.485133h40.062597v137.815336h-48.075117v41.665102c51.280125 27.242567 116.982786 70.510172 171.467919 126.597809 149.032864 73.71518 243.580595 240.375587 251.593114 358.960876 4.807512 48.075117-9.615023 84.932707-36.85759 102.560251z m-407.035994-565.683881l-8.012519-4.807512V126.798122h48.075117v-73.71518h-44.87011v-16.025039c0-83.330203 133.007825-99.355243 179.480439-102.56025v-32.050079h-440.688576v33.652582c46.472613 3.205008 179.480438 19.230047 179.480438 102.560251v16.025039h-44.87011v73.71518h48.075118v92.945227l-8.01252 4.807512c-51.280125 27.242567-120.187793 70.510172-174.672926 129.802817 0 0-1.602504 0-1.602504 1.602503-48.075117 52.882629-84.932707 118.58529-84.932708 195.505478V863.949922h615.361503v-312.488263c-1.602504-163.455399-165.057903-274.028169-262.810642-326.910798z m-503.186228 464.726134c-1.602504 36.85759 6.410016 64.100156 24.037558 75.317684 46.472613 30.447574 81.7277 6.410016 94.547731-4.807512v-208.325508c0-54.485133 16.025039-102.56025 40.062598-144.225352-94.547731 78.522692-153.840376 195.505477-158.647887 282.040688z m916.632238 0c-4.807512-86.535211-65.70266-206.723005-161.852896-285.245696 25.640063 43.267606 41.665102 92.945227 41.665102 147.43036V758.184664c11.217527 9.615023 46.472613 36.85759 96.150235 6.410015 17.627543-11.217527 25.640063-38.460094 24.037559-75.317684zM560.64 421.658842h-57.690141V641.201878c-20.832551-19.230047-46.472613-35.255086-75.317684-44.87011v52.882629c14.422535 4.807512 32.050078 14.422535 49.677622 28.845071s30.447574 30.447574 36.85759 48.075117h48.075117v-304.475743h-1.602504z"  horiz-adv-x="1024" />

    
    <glyph glyph-name="luyin" unicode="&#58901;" d="M512 212.48c130.56 0 235.52 102.4 235.52 232.96V640c0 130.56-104.96 232.96-235.52 232.96s-235.52-102.4-235.52-232.96v-194.56c0-130.56 102.4-232.96 235.52-232.96z m368.64 281.6c0 23.04-20.48 43.52-46.08 43.52s-43.52-20.48-43.52-43.52c0-5.12 0-10.24 2.56-12.8v-33.28c0-151.04-125.44-276.48-281.6-276.48-153.6 0-281.6 125.44-281.6 276.48V486.4c0 2.56 2.56 5.12 2.56 10.24 0 23.04-20.48 43.52-43.52 43.52-25.6 0-43.52-20.48-43.52-43.52v-64c0-186.88 140.8-335.36 320-360.96v-87.04h-122.88c-25.6 0-46.08-20.48-46.08-46.08s20.48-43.52 46.08-43.52h332.8c28.16 0 43.52 17.92 43.52 43.52 0 23.04-17.92 46.08-43.52 46.08h-122.88v87.04c184.32 20.48 327.68 174.08 327.68 360.96v61.44z m0 0"  horiz-adv-x="1024" />

    
    <glyph glyph-name="dianzan" unicode="&#58957;" d="M1023.21664 397.19936c0.37888-4.7104 0.03072-9.55392-1.24416-14.37696l-92.08832-406.46144a42.60352 42.60352 0 0 0-6.12864-13.21984c-9.86112-19.69664-24.8576-37.10976-44.8-49.792a125.16352 125.16352 0 0 0-67.6352-19.54304v0.256l-591.50336 0.25088c-2.06848-0.3072-4.15744-0.51712-6.31296-0.51712-2.16064 0-4.26496 0.2048-6.3488 0.52224l-157.3376 0.06656a42.5984 42.5984 0 0 0-6.77376-0.5888 42.61376 42.61376 0 0 0-42.61376 42.61376L0.8192 448.02048a42.61888 42.61888 0 0 0 42.624 42.61376c1.75616 0 3.4816-0.13824 5.18656-0.34816l141.42976 0.32768v0.80384c130.1248 9.31328 233.23648 115.98848 236.91776 247.59808-0.3328 3.70176-0.5632 7.424-0.5632 11.2128 0 68.46976 55.5008 123.97568 123.97568 123.97568 58.83904 0 107.99616-41.03168 120.69376-96.00512l0.62464 0.08192a448.38912 448.38912 0 0 0 10.78272-97.45408 445.30688 445.30688 0 0 0-24.9344-147.29216l237.86496-0.256c2.18624 0 4.3264-0.22016 6.43072-0.54272 40.61184-1.59232 79.72864-22.50752 102.77376-59.648a125.696 125.696 0 0 0 18.59072-75.88864M85.69856-20.4032l85.22752-0.03584 0.31744 425.7792-85.1456-0.18944-0.39936-425.55392z m846.99648 448.96768a41.07264 41.07264 0 0 1-37.16608 19.36896v0.12288h-0.1024l-300.672 0.31232a42.624 42.624 0 0 0-42.61376 42.624c0 6.77376 1.62816 13.16352 4.44416 18.85184l-0.45568 0.37376a361.28256 361.28256 0 0 1 36.43392 102.68672l0.53248-0.01536s5.66784 23.0144 5.59104 67.1488c-0.05632 34.9696-6.43072 66.88768-6.43072 66.88768h-0.32256c0.03072 0.6144 0.1024 1.22368 0.1024 1.85344a39.85408 39.85408 0 0 1-79.71328 0c0-0.9216 0.08192-1.82784 0.13824-2.73408l-0.55296-0.00512s0.67584-33.26976-5.9648-67.77856c-2.82112-14.63808-6.784-28.288-10.3936-39.10144a13.56288 13.56288 0 0 0-0.2048 0.1024C459.4688 529.60256 369.27488 444.60032 256.5632 415.96416l-0.4096-436.43392 555.3664-0.22528c1.87904 0 3.712-0.16384 5.52448-0.4096a39.55712 39.55712 0 0 1 16.04608 5.85216 39.62368 39.62368 0 0 1 15.36 18.23232l0.11264-0.06144 88.66304 391.33696-0.34304 0.1024a40.98048 40.98048 0 0 1-4.18816 34.2016"  horiz-adv-x="1024" />

    
    <glyph glyph-name="sousuo" unicode="&#58964;" d="M439.323 120.522c-49.28 0-97.098 9.657-142.126 28.7-43.48 18.389-82.523 44.706-116.044 78.225s-59.841 72.561-78.23 116.04c-19.044 45.027-28.7 92.844-28.7 142.122 0 49.285 9.656 97.105 28.7 142.133 18.388 43.48 44.71 82.52 78.231 116.04C214.673 777.295 253.717 803.613 297.198 822c45.027 19.04 92.846 28.694 142.125 28.694 49.28 0 97.1-9.654 142.127-28.694 43.481-18.386 82.526-44.705 116.045-78.22 33.52-33.52 59.842-72.56 78.23-116.04 19.043-45.028 28.7-92.848 28.7-142.133 0-49.278-9.657-97.095-28.702-142.123-18.388-43.477-44.708-82.52-78.228-116.039S624.93 167.608 581.45 149.22c-45.028-19.043-92.847-28.698-142.128-28.698z m0 676.961c-171.975 0-311.888-139.906-311.888-311.875s139.913-311.874 311.888-311.874 311.888 139.908 311.888 311.874S611.3 797.483 439.323 797.483z m451.355-846.218c-22.122 0-42.904 8.562-58.541 24.116L674.673 128.025l37.039 38.206L869.6 13.172c5.607-5.606 13.092-8.693 21.078-8.693 7.983 0 15.465 3.088 21.07 8.691 5.617 5.622 8.717 13.127 8.717 21.123 0 7.981-3.092 15.463-8.703 21.068l-0.302 0.307-152.746 157.563 38.208 37.035L949.534 92.84c15.571-15.638 24.145-36.423 24.145-58.55 0-22.195-8.626-43.054-24.287-58.736-15.669-15.665-36.515-24.288-58.714-24.288zM281.015 327.245c-42.34 42.321-65.652 98.585-65.643 158.421 0.008 59.819 23.319 116.075 65.637 158.408l37.635-37.62c-66.607-66.629-66.61-175-0.007-241.577l-37.622-37.632z"  horiz-adv-x="1024" />

    
    <glyph glyph-name="yuyin" unicode="&#58983;" d="M636.16512-61.44l-70.80448 70.8096c107.59168 92.06272 176.03072 228.58752 176.03072 381.31712 0 145.49504-62.2848 276.1216-161.1776 367.77472L651.19232 829.44c117.01248-109.82912 190.51008-265.47712 190.51008-438.60992 0-180.44416-79.77984-341.90848-205.53728-452.27008zM445.08672 129.64352l-72.93952 72.92928c66.28352 36.64384 111.19104 107.16672 111.19104 188.25728 0 73.61536-37.04832 138.5216-93.47072 177.29024l71.62368 71.61344C535.72096 582.02624 583.68 492.11904 583.68 390.83008c0-108.65664-54.95808-204.44672-138.59328-261.18656zM253.96736 304.81408c-39.5776 0-71.66976 32.08192-71.66976 71.67488 0 39.59808 32.08704 71.67488 71.66976 71.67488 39.60832 0 71.68-32.0768 71.68-71.67488 0-39.59296-32.07168-71.67488-71.68-71.67488z"  horiz-adv-x="1024" />

    
    <glyph glyph-name="goutongye_yuyin_you_00" unicode="&#58946;" d="M661.098049 828.721604l-54.164811-31.358575c128.285078-94.075724 210.957684-245.167038 210.957684-413.363029s-82.672606-319.287305-210.957684-413.363029l54.164811-31.358575c131.135857 105.478842 213.808463 265.122494 213.808463 444.721604s-82.672606 339.242762-213.808463 444.721604zM381.721657 646.271715c74.120267-62.717149 122.583519-156.792873 122.583519-262.271715S455.841924 184.445434 381.721657 121.728285l51.314031-31.358575c79.821826 74.120267 128.285078 176.74833 128.285078 293.63029s-48.463252 219.510022-128.285078 293.63029l-51.314031-31.358575zM142.256178 489.478842c28.507795-25.657016 48.463252-62.717149 48.463252-105.478842s-19.955457-79.821826-48.463252-105.478842l51.314031-31.358574c34.209354 37.060134 54.164811 85.523385 54.164811 136.837416s-19.955457 99.777283-54.164811 136.837416l-51.314031-31.358574z"  horiz-adv-x="1024" />

    
    <glyph glyph-name="goutongye_yuyin_you_01" unicode="&#58947;" d="M661.098049 828.721604l-54.164811-31.358575c128.285078-94.075724 210.957684-245.167038 210.957684-413.363029s-82.672606-319.287305-210.957684-413.363029l54.164811-31.358575c131.135857 105.478842 213.808463 265.122494 213.808463 444.721604s-82.672606 339.242762-213.808463 444.721604zM381.721657 646.271715c74.120267-62.717149 122.583519-156.792873 122.583519-262.271715S455.841924 184.445434 381.721657 121.728285l51.314031-31.358575c79.821826 74.120267 128.285078 176.74833 128.285078 293.63029s-48.463252 219.510022-128.285078 293.63029l-51.314031-31.358575zM142.256178 489.478842c28.507795-25.657016 48.463252-62.717149 48.463252-105.478842s-19.955457-79.821826-48.463252-105.478842l51.314031-31.358574c34.209354 37.060134 54.164811 85.523385 54.164811 136.837416s-19.955457 99.777283-54.164811 136.837416l-51.314031-31.358574z"  horiz-adv-x="1024" />

    
    <glyph glyph-name="jinbi" unicode="&#59021;" d="M693.743936 276.328307v-7.288939c0-58.375449-47.378102-105.753551-105.753552-105.753551v-0.479536h-16.78374v219.275577h16.78374c58.375449 0 105.753551-47.378102 105.753552-105.753551zM455.990259 382.081858h115.216385v-219.275577h-115.216385zM455.990259 601.357435h115.216385v-218.764072h-115.216385zM571.206644 382.593363v218.764072h-136.539728c-58.375449 0-105.753551-47.378102-105.753551-105.753551v-7.25697c0-58.407418 47.378102-105.753551 105.753551-105.753551h21.323343v-219.787082h132.000125v0.479536c58.375449 0 105.753551 47.378102 105.753552 105.753551v7.288939c0 58.375449-47.378102 105.753551-105.753552 105.753551h-16.78374v0.511505z m-59.909963 443.858012c245.458212 0 444.369517-198.975243 444.369517-444.369517 0-245.458212-198.911305-444.369517-444.369517-444.369517-245.394274 0-444.369517 198.911305-444.369517 444.369517 0 245.394274 198.975243 444.369517 444.369517 444.369517zM455.990259 601.357435v-218.764072h-21.323343c-58.375449 0-105.753551 47.346133-105.753551 105.753551v7.25697c0 58.375449 47.378102 105.753551 105.753551 105.753551h21.323343zM587.990384 360.215042h-153.320271c-70.651556 0-128.131872 57.480316-128.131872 128.135069v7.25697c0 70.651556 57.480316 128.131872 128.131872 128.131872a22.378321 22.378321 0 1 0 0-44.756642c-45.971465 0-83.37523-37.403765-83.37523-83.37523v-7.25697c0-45.971465 37.403765-83.37523 83.37523-83.37523h153.320271a22.378321 22.378321 0 1 0 0-44.759839zM587.990384 140.907496a22.378321 22.378321 0 1 0 0 44.756642c45.974662 0 83.37523 37.400568 83.375231 83.37523v7.288939c0 45.974662-37.400568 83.37523-83.375231 83.37523h-153.320271a22.378321 22.378321 0 1 0 0 44.756642h153.320271c70.654753 0 128.131872-57.477119 128.131873-128.131872v-7.288939c0-70.654753-57.480316-128.131872-128.131873-128.131872zM587.990384 140.42796h-259.077019a22.378321 22.378321 0 1 0 0 44.756642h259.077019a22.378321 22.378321 0 1 0 0-44.756642zM693.743936 578.979114h-259.07702a22.378321 22.378321 0 1 0 0 44.756642h259.07702a22.378321 22.378321 0 1 0 0-44.756642zM455.990259 30.454497a22.378321 22.378321 0 0 0-22.378321 22.378321V711.26696a22.378321 22.378321 0 1 0 44.756642 0v-658.434142a22.378321 22.378321 0 0 0-22.378321-22.378321zM571.206644 30.454497a22.378321 22.378321 0 0 0-22.378321 22.378321V711.26696a22.378321 22.378321 0 1 0 44.756642 0v-658.434142a22.378321 22.378321 0 0 0-22.378321-22.378321zM511.296681-84.66598c-257.366676 0-466.747838 209.381162-466.747838 466.747838 0 257.363479 209.381162 466.747838 466.747838 466.747838s466.747838-209.381162 466.747838-466.747838c0-257.363479-209.381162-466.747838-466.747838-466.747838z m0 888.739034c-232.686585 0-421.991196-189.304611-421.991196-421.991196s189.304611-421.991196 421.991196-421.991196c232.689782 0 421.991196 189.304611 421.991196 421.991196s-189.304611 421.991196-421.991196 421.991196zM156.178302 425.94017a22.378321 22.378321 0 0 0-22.033055 26.441585 378.992851 378.992851 0 0 0 25.006175 82.054909 22.378321 22.378321 0 0 0 41.057825-17.81634 334.101939 334.101939 0 0 1-22.04904-72.352309 22.384715 22.384715 0 0 0-21.981905-18.327845zM511.296681-1.546502c-211.532678 0-383.62836 172.095682-383.62836 383.62836a22.378321 22.378321 0 1 0 44.756642 0c0-186.852587 152.015935-338.871718 338.871718-338.871718a22.378321 22.378321 0 1 0 0-44.756642z"  horiz-adv-x="1024" />

    
    <glyph glyph-name="yuyin1" unicode="&#58943;" d="M512 228.864c-82.944 0-150.016 67.072-150.016 150.016V635.904c0 82.944 67.072 150.016 150.016 150.016s150.016-67.072 150.016-150.016V378.88c0-82.944-67.072-150.016-150.016-150.016z m0 514.048c-58.88 0-107.008-48.128-107.008-107.008V378.88c0-58.88 48.128-107.008 107.008-107.008s107.008 48.128 107.008 107.008V635.904c0 58.88-48.128 107.008-107.008 107.008z m278.528-364.032c0 11.776-9.728 21.504-21.504 21.504s-21.504-9.728-21.504-21.504c0-130.048-105.472-235.52-235.52-235.52s-235.52 105.472-235.52 235.52c0 11.776-9.728 21.504-21.504 21.504-11.776 0-21.504-9.728-21.504-21.504 0-146.432 113.664-266.752 257.024-277.504v-86.528H426.496c-11.776 0-21.504-9.728-21.504-21.504s9.728-21.504 21.504-21.504h171.52c11.776 0 21.504 9.728 21.504 21.504s-9.728 21.504-21.504 21.504h-64.512v86.528c143.36 10.752 257.024 131.072 257.024 277.504z"  horiz-adv-x="1024" />

    
    <glyph glyph-name="gou" unicode="&#58897;" d="M515.479165 829.077246c-243.541521 0-441.035275-197.391426-441.035276-441.035275s197.391426-441.035275 441.035276-441.035276 441.035275 197.391426 441.035275 441.035276-197.493754 441.035275-441.035275 441.035275z m266.770061-336.251024L486.315579 196.892575c-7.776956-7.776956-17.907465-11.665434-28.037973-11.665434-10.130509 0-20.261017 3.888478-28.037974 11.665434L285.035675 341.994204c-15.553912 15.451584-15.553912 40.624363 0 56.075947 15.553912 15.553912 40.624363 15.553912 56.075947 0l117.063655-117.063656 267.793345 267.793345c15.553912 15.553912 40.624363 15.553912 56.075947 0 15.656241-15.349256 15.656241-40.522035 0.204657-55.973618z"  horiz-adv-x="1024" />

    
    <glyph glyph-name="arrow-right" unicode="&#58632;" d="M511.699 833.001c-247.539 0-448.209-200.668-448.209-448.207s200.67-448.208 448.209-448.208 448.208 200.67 448.208 448.208-200.669 448.207-448.208 448.207zM724.462 365.46c-0.678-1.481-1.473-2.617-1.939-3.267-0.218-0.39-0.434-0.801-0.653-1.216-1.258-2.382-2.927-5.544-5.808-8.56l-0.189-0.192c-0.179-0.182-0.351-0.346-0.513-0.497-0.575-0.824-1.209-1.585-1.889-2.267l-262.157-252.673c-9.377-9.018-21.685-13.985-34.663-13.985-13.719 0-26.497 5.435-35.977 15.299-19.086 19.818-18.5 51.495 1.309 70.606l225.702 217.538-226.536 214.303c-19.995 18.932-20.876 50.611-1.967 70.617 9.415 9.928 22.651 15.619 36.315 15.619 12.812 0 24.995-4.846 34.305-13.647l264.368-250.049c15.588-14.721 19.725-37.882 10.292-57.63z"  horiz-adv-x="1024" />

    
    <glyph glyph-name="icon-test" unicode="&#58938;" d="M424.495-6.237h-93.091v19.642c-7.727 2.048-15.267 4.468-22.807 7.168-4.841 1.769-9.681 3.631-14.429 5.679v-41.798c0-15.36 12.567-27.927 27.927-27.927h111.709c15.36 0 27.927 12.567 27.927 27.927v18.618h-37.236v-9.309zM687.011-6.237h-93.091v9.309h-37.236v-18.618c0-15.36 12.567-27.927 27.927-27.927h111.709c15.36 0 27.927 12.567 27.927 27.927v35.002c-12.102-4.468-24.483-8.099-37.236-10.799v-14.895zM700.788 50.735c-0.465-0.093-0.931-0.279-1.396-0.465 0.465 0.186 0.931 0.279 1.396 0.465zM835.398 467.503c-5.306 0-10.426 2.327-13.964 6.237 22.807-40.96 35.002-87.319 35.002-135.54v-74.473c0-59.671-23.273-115.805-65.443-157.975-25.693-25.693-56.599-44.311-90.205-55.017-0.465-0.186-0.931-0.279-1.396-0.465-21.225-6.609-43.567-9.961-66.374-9.961h-223.418c-30.348 0-60.044 5.12-88.343 15.36-27.369 9.868-52.689 24.111-75.404 42.543-45.521 36.771-77.638 88.25-90.484 144.943-3.537 15.453-16.943 26.159-32.675 26.159h-57.53v91.229h50.269c18.525 0 33.513 14.988 33.513 33.513 0 42.729 12.102 84.34 35.002 120.18 17.408 27.183 40.401 50.269 67.305 67.584-0.093 10.612-1.396 23.738-5.306 37.888-0.186 0.559-0.372 1.21-0.559 1.955-37.609-20.945-69.446-50.921-92.719-87.412-26.065-40.774-40.215-87.971-40.867-136.564h-46.639c-20.573 0-37.236-16.663-37.236-37.236v-91.229c0-20.573 16.663-37.236 37.236-37.236h54.551c15.081-63.674 51.479-121.484 102.679-162.909 21.876-17.687 45.987-32.116 71.773-42.915 4.748-1.955 9.588-3.91 14.429-5.679 7.54-2.7 15.174-5.12 22.807-7.168 25.321-6.889 51.572-10.333 78.196-10.333h223.418c18.339 0 36.492 1.862 53.993 5.585 12.753 2.7 25.135 6.237 37.236 10.799 34.537 12.847 66.188 33.14 92.998 59.951 49.245 49.245 76.335 114.688 76.335 184.32v74.473c0 42.729-8.378 84.154-24.855 123.159-2.234 5.306-4.561 10.426-7.075 15.546-6.144-2.886-12.753-5.585-19.642-8.285-2.141-0.652-4.468-1.024-6.609-1.024zM372.364 617.472h204.8c74.566 0 144.756-29.044 197.446-81.827 16.849-16.849 31.279-35.468 43.101-55.389-3.165 9.402 1.676 19.642 10.985 23.273 5.306 2.048 10.147 4.003 14.615 6.051-12.195 18.804-26.345 36.399-42.356 52.503-29.044 29.044-62.929 51.852-100.631 67.863-39.005 16.477-80.524 24.855-123.159 24.855h-204.8c-13.591 0-27.276-1.117-40.681-3.165 12.381-12.66 21.039-24.483 26.996-34.444 4.561 0.093 9.123 0.279 13.684 0.279zM238.313 441.344c0-0 0-0 0-0 0-15.424 10.42-27.927 23.273-27.927 12.853 0 23.273 12.503 23.273 27.927 0 0 0 0 0 0 0 0 0 0 0 0 0 15.424-10.42 27.927-23.273 27.927-12.853 0-23.273-12.503-23.273-27.927 0-0 0-0 0-0zM251.252 581.818c0.093-8.099-0.559-14.801-1.21-19.363-1.117-8.378 1.489-16.663 7.261-22.807 5.306-5.679 12.66-8.844 20.387-8.844 0.652 0 1.303 0 1.955 0.093 9.495 0.652 24.204 2.793 40.308 9.123 19.084 7.54 33.14 14.988 41.705 22.249 8.751 7.354 12.102 19.084 8.564 29.975-1.769 5.306-5.12 14.057-11.636 24.855-6.051 10.054-14.708 21.876-26.996 34.444-8.285 8.471-18.246 17.315-30.161 26.159-20.666 15.36-39.75 23.738-52.131 28.020-8.564 2.979-17.967 0.465-24.017-6.237-6.051-6.796-7.354-16.384-3.444-24.576 11.823-24.39 20.387-43.939 23.366-53.062 0.186-0.745 0.465-1.396 0.559-1.955 4.096-14.336 5.399-27.462 5.492-38.074zM279.273 647.82c9.775-7.261 40.867-31.93 53.248-60.788-4.748-2.886-12.847-7.168-26.159-12.381-6.609-2.607-12.753-4.189-18.246-5.213 1.024 15.919 0.186 36.864-6.33 60.323-1.583 5.492-4.561 13.405-8.285 22.156 1.955-1.303 3.817-2.7 5.772-4.096zM382.604 681.146h102.4c10.24 0 18.618 8.378 18.618 18.618s-8.378 18.618-18.618 18.618h-102.4c-10.24 0-18.618-8.378-18.618-18.618s8.285-18.618 18.618-18.618zM382.604 727.692h102.4c10.24 0 18.618 8.378 18.618 18.618s-8.378 18.618-18.618 18.618h-102.4c-10.24 0-18.618-8.378-18.618-18.618s8.285-18.618 18.618-18.618zM531.549 680.215h102.4c10.24 0 18.618 8.378 18.618 18.618s-8.378 18.618-18.618 18.618h-102.4c-10.24 0-18.618-8.378-18.618-18.618s8.285-18.618 18.618-18.618zM531.549 726.761h102.4c10.24 0 18.618 8.378 18.618 18.618s-8.378 18.618-18.618 18.618h-102.4c-10.24 0-18.618-8.378-18.618-18.618s8.285-18.618 18.618-18.618zM382.604 774.237h102.4c10.24 0 18.618 8.378 18.618 18.618s-8.378 18.618-18.618 18.618h-102.4c-10.24 0-18.618-8.378-18.618-18.618s8.285-18.618 18.618-18.618zM986.857 612.073c-8.844 5.12-20.294 2.141-25.414-6.796-7.727-13.219-18.804-28.672-27.834-38.074-4.189 20.294-20.201 34.351-35.375 38.167-17.78 4.468-36.678-3.537-46.918-19.735-10.24-16.291-9.216-36.026 2.607-50.455 4.468-5.399 9.309-9.495 14.336-12.567-6.516-4.096-14.708-8.471-24.855-13.033-4.468-1.955-9.309-4.003-14.615-6.051-9.309-3.537-14.15-13.871-10.985-23.273l0.279-0.838c0.838-2.141 2.048-4.096 3.444-5.679 3.537-4.003 8.657-6.237 13.964-6.237 2.234 0 4.468 0.372 6.703 1.21 6.889 2.7 13.498 5.399 19.642 8.285 22.342 10.24 39.75 21.69 51.852 34.164 2.42 2.42 4.561 4.934 6.423 7.261 6.703 1.862 12.474 4.003 16.384 5.585 12.102 4.655 25.228 16.663 39.936 36.585 9.868 13.312 16.943 25.507 17.222 26.065 5.12 8.844 2.048 20.201-6.796 25.414zM896.652 552.215c-7.727 0-11.264 3.072-14.057 6.516-2.048 2.42-1.024 5.12 0.093 6.982 0.279 0.372 2.42 3.631 5.399 3.631 0.372 0 0.652 0 1.024-0.093 2.234-0.559 7.727-4.655 8.099-11.45 0.186-1.862 0-3.631-0.559-5.585z"  horiz-adv-x="1024" />

    
    <glyph glyph-name="bofang" unicode="&#58958;" d="M837.622 475.166L279.126 840.062c-86.8 50.172-157.903 9.081-157.903-91.184v-729.714c0-100.339 71.102-141.355 157.903-91.262L837.622 292.72c86.875 50.247 86.875 132.274 0 182.446z"  horiz-adv-x="1024" />

    
    <glyph glyph-name="shengboyuyinxiaoxi" unicode="&#59588;" d="M160 256h-64V512h64v-256z m768 256h-64v-256h64V512z m-576 64h-64v-384h64V576z m384 0h-64v-384h64V576zM544 704h-64v-640h64V704z"  horiz-adv-x="1024" />

    
    <glyph glyph-name="homework" unicode="&#58814;" d="M174.592 238.080v-16.896c0-7.168 5.632-12.8 12.8-12.8h201.728c7.168 0 12.8 5.632 12.8 12.8v16.896c0 7.168-5.632 12.8-12.8 12.8h-201.216c-7.168 0-13.312-5.632-13.312-12.8zM388.608 422.912h-200.704c-7.168 0-12.8-5.632-12.8-12.8v-16.896c0-7.168 5.632-12.8 12.8-12.8h200.704c7.168 0 12.8 5.632 12.8 12.8v16.896c0 6.656-6.144 12.8-12.8 12.8zM390.144 594.944h-202.24c-7.168 0-12.8-5.632-12.8-12.8v-16.896c0-7.168 5.632-12.8 12.8-12.8h202.752c7.168 0 12.8 5.632 12.8 12.8v16.896c-0.512 6.656-6.144 12.8-13.312 12.8zM731.648 422.912h-103.424c-7.168 0-12.8-5.632-12.8-12.8v-16.896c0-7.168 5.632-12.8 12.8-12.8h103.424c7.168 0 12.8 5.632 12.8 12.8v16.896c0 6.656-6.144 12.8-12.8 12.8zM830.464 594.944h-202.752c-7.168 0-12.8-5.632-12.8-12.8v-16.896c0-7.168 5.632-12.8 12.8-12.8h202.752c7.168 0 12.8 5.632 12.8 12.8v16.896c0 6.656-5.632 12.8-12.8 12.8zM907.776 196.608v-92.672c0-17.92-14.848-32.768-32.768-32.768h-247.296c-10.752 0-20.48-4.608-27.136-12.8-22.528-26.624-54.784-41.472-88.576-41.472-33.792 0-66.048 15.36-88.576 41.472-6.656 8.192-16.896 12.8-27.136 12.8h-247.296c-17.92 0-32.768 14.848-32.768 32.768v605.184c0 17.92 14.848 32.768 32.768 32.768h219.136c59.392 0 120.32-48.64 120.32-108.544v-613.376s11.776-2.56 24.064-2.56 24.064 2.56 24.064 2.56v612.864c0 59.904 60.416 108.544 120.32 108.544h219.136c17.92 0 32.768-14.848 32.768-32.768v-68.608h47.104v79.872c0 37.376-30.72 68.096-68.096 68.096h-238.592c-55.808 0-104.96-26.624-136.192-68.096-31.232 41.472-80.384 68.096-136.192 68.096h-239.616c-37.376 0-68.096-30.72-68.096-68.096v-630.272c0-37.376 30.72-68.096 68.096-68.096h250.368c33.28-32.768 77.824-51.2 124.416-51.2s90.624 18.432 124.416 51.2h250.368c37.376 0 68.096 30.72 68.096 68.096v107.008h-47.104zM747.008 205.824l-2.56 66.56 70.656-54.272zM762.291 296.412l145.28 193.766 71.281-53.443-145.28-193.766zM1014.272 483.84l-17.92-23.552-71.168 53.76 17.92 23.552c5.12 7.168 19.456 6.144 27.136 1.536l1.024-1.024 35.84-27.136c7.168-5.12 13.824-18.432 8.704-25.6l-1.536-1.536zM680.448 250.88h-52.224c-7.168 0-12.8-5.632-12.8-12.8v-16.896c0-7.168 5.632-12.8 12.8-12.8h52.224c7.168 0 12.8 5.632 12.8 12.8v16.896c0 7.168-6.144 12.8-12.8 12.8z"  horiz-adv-x="1024" />

    
    <glyph glyph-name="wode" unicode="&#58926;" d="M414.47 602.87a37.78 37.78 0 1 1-37.78-37.76 37.77 37.77 0 0 1 37.78 37.76zM650 521.62a37.79 37.79 0 0 1-49.75-19.48c-17.69-40.46-51-65.59-86.94-65.59-36.17 0-69.59 25.38-87.21 66.23a37.78 37.78 0 0 1-69.38-29.9c14-32.46 35.34-60 61.71-79.67 28.24-21.05 61-32.18 94.88-32.18 33.66 0 66.33 11 94.47 31.87 26.28 19.47 47.62 46.79 61.7 79A37.75 37.75 0 0 1 650 521.62z m-32-557H179.04c-21 0.53-31.15 15.06-34.54 21.29a41.75 41.75 0 0 0 0.91 42.12l91.09 149.91a36.39 36.39 0 0 1-62.18 37.8l-91.1-149.87a113.8 113.8 0 0 1-2.6-114.78c19.66-36 55.76-58.13 96.58-59.17h440.86a36.39 36.39 0 0 1 0 72.77z m32 676a37.76 37.76 0 1 1 37.78-37.76A37.77 37.77 0 0 1 650 640.63z m212-273a370.5 370.5 0 1 1-81.15-122.22A368.14 368.14 0 0 1 862 367.59zM519.63 210.08a296.56 296.56 0 1 0 209.75 506.25c115.62-115.66 115.62-303.84 0-419.5a295.65 295.65 0 0 0-209.75-86.75zM943.5 65.87l-91.09 149.86a36.39 36.39 0 0 1-62.18-37.8l91.09-149.86a41.75 41.75 0 0 0 0.91-42.12c-3.39-6.2-13.5-20.66-34.34-21.28l-96.25-0.39a36.39 36.39 0 0 1 0.14-72.77h0.15l93.82 0.38H850.72c40.34 1.42 75.95 23.45 95.42 59.12a113.8 113.8 0 0 1-2.64 114.86z"  horiz-adv-x="1024" />

    
    <glyph glyph-name="sikao" unicode="&#58960;" d="M403.022 87.179v-44.303h42.11c20.927 0 38.095-17.36 38.095-38.56v-1.096c0-7.158 2.664-14.85 8.05-19.814v-0.529c5.354-4.964 12.33-7.725 19.305-7.725 7.502 0 14.202 3.295 19.832 8.254 5.387 5.527 7.8 12.117 7.8 19.814v1.096c0 21.195 17.418 38.554 38.069 38.554h42.137v44.303c-34.608-12.934-70.838-18.99-107.838-18.99-36.75 0-72.953 6.061-107.56 18.996z m233.087 94.383l1.622 1.13c15.823 10.169 30.566 22.29 43.976 36.044 45.592 46.501 70.81 109.8 70.81 175.325 0 66.6-25.218 128.796-70.81 175.298-45.593 46.53-106.742 72.655-171.125 72.655-64.382 0-125.526-26.126-170.874-72.655-45.592-46.502-71.082-108.699-71.082-175.298 0-65.525 25.484-128.824 71.082-175.325 13.409-13.753 28.185-25.875 44.003-36.044l1.345-1.13c37.797-23.393 81.524-35.481 125.532-35.481 44.518 0 87.42 12.088 125.52 35.481zM345.062 734.51c6.455-11.304 2.419-25.619-7.773-31.652-11.262-6.623-25.213-2.477-31.364 8.794l-36.23 63.86c-5.907 11.277-2.42 25.314 8.598 31.653 10.707 6.312 24.664 3.011 30.572-8.26l36.197-64.395zM201.575 603.766c10.713-6.59 14.478-20.91 8.321-31.363-6.45-11.304-20.13-15.417-31.12-8.821l-62.516 37.173c-10.708 6.59-14.473 20.91-8.294 31.903 6.428 10.736 20.103 14.877 31.093 8.254l62.516-37.146z m-60.894-186.312c12.606 0 22.798-10.208 22.798-22.859 0-13.218-10.192-23.954-22.798-23.954H68.519c-12.6 0-22.516 10.736-22.516 23.954 0 12.651 9.916 22.859 22.516 22.859h72.162z m38.095-192.941c10.99 6.34 24.67 2.198 31.12-8.26 6.157-11.27 2.392-25.585-8.321-31.93l-62.76-37.43c-10.74-6.59-24.416-2.193-30.85 8.822-6.178 10.992-2.413 24.75 8.848 31.368l61.963 37.43z m641.34-40.19c-11.266 6.345-15.026 20.66-8.57 31.93 6.422 10.458 19.858 14.6 30.843 8.26l62.489-37.43c10.74-6.617 14.5-20.376 8.321-31.368-6.178-11.015-19.859-15.411-30.849-8.822l-62.234 37.43z m60.368 186.318c-12.356 0-22.272 10.736-22.272 23.954 0 12.657 9.916 22.859 22.272 22.859h72.682c12.33 0 22.273-10.202 22.273-22.859 0-13.218-9.943-23.954-22.273-23.954h-72.682zM842.39 563.58c-10.985-6.06-24.421-2.482-30.844 8.822-6.455 10.987-2.695 25.308 8.571 31.363l62.234 37.146c10.99 6.628 24.67 2.482 30.85-8.254 6.178-11.276 2.418-25.313-8.322-31.903l-62.49-37.173z m-126.872 148.07c-6.455-11.27-20.38-15.416-31.12-8.793-10.984 6.033-14.478 20.348-8.044 31.652l35.953 64.396c5.88 11.276 20.108 14.855 31.093 8.26 10.74-6.34 14.228-20.377 8.044-32.215l-35.926-63.3z m-182.412 61.92c0-12.657-9.64-22.825-22.523-22.825-12.33 0-22.522 10.168-22.522 22.825V847.606c0 12.684 10.193 23.392 22.522 23.392 12.883 0 22.523-10.708 22.523-23.392v-74.035z m-22.523-374.924c-6.455-4.675-12.883-8.821-19.858-11.298-13.952-5.777-28.706-8.516-43.179-8.516-14.749 0-29.254 2.739-42.657 8.516a105.991 105.991 0 0 0-36.474 25.057c-8.847 9.072-8.847 23.387 0 33.027 8.598 8.537 23.07 8.537 32.188 0 5.908-6.596 13.404-11.839 21.177-15.417 8.327-3.295 16.924-4.96 25.766-4.96 8.57 0 17.44 1.665 25.49 4.96 8.05 3.578 15.27 8.821 21.453 15.417 9.119 8.537 23.591 8.537 32.189 0 6.156-6.596 13.409-11.839 21.453-15.417 8.598-3.295 16.892-4.96 25.766-4.96 8.57 0 17.163 1.665 25.734 4.96 8.05 3.578 15.03 8.821 21.453 15.417 8.598 8.537 23.07 8.537 32.194 0 8.598-9.64 8.598-23.955 0-33.027-10.713-10.742-23.075-19.28-36.756-25.057-13.398-5.777-27.626-8.516-42.625-8.516-14.776 0-29.259 2.739-42.934 8.516-6.976 2.477-13.952 6.623-20.38 11.298zM694.063 127.62v-123.303c0-22.006-16.642-39.054-37.57-39.054h-49.361c-5.354-13.786-12.85-26.153-23.32-36.611-19.305-20.098-45.592-31.653-73.23-31.653-27.355 0-53.642 11.27-72.953 31.369-10.214 10.742-18.236 23.109-23.623 36.895h-49.08c-20.656 0-37.824 17.048-37.824 39.054V127.62c-14.75 11.02-28.43 22.859-40.76 36.072-60.097 61.106-93.36 143.4-93.36 230.37 0 86.692 33.263 168.986 93.36 230.621 59.55 61.379 140 95.508 224.24 95.508 84.768 0 165.217-34.124 224.772-95.508 59.82-61.635 93.083-143.93 93.083-230.62 0-86.97-33.262-169.265-93.083-230.371-12.34-13.213-26.292-25.052-41.29-36.072z"  horiz-adv-x="1024" />

    
    <glyph glyph-name="xiangxiajiantoucuxiao" unicode="&#59592;" d="M597.333333 256V810.666667c0 23.68-19.285333 42.666667-43.093333 42.666666h-84.48A42.666667 42.666667 0 0 1 426.666667 810.666667v-554.666667H341.717333c-47.232 0-62.805333-30.549333-34.56-68.266667l153.642667-204.8c28.501333-37.973333 74.112-37.717333 102.4 0l153.6 204.8c28.501333 37.973333 12.8 68.266667-34.517333 68.266667H597.333333z"  horiz-adv-x="1024" />

    
    <glyph glyph-name="shouye" unicode="&#58903;" d="M952.9 419l-35.4 35.4-0.6 0.6-357 357.2s-17.5 19.7-47.7 19.9c-30.2 0.2-47.6-19.8-47.6-19.8L108.9 456.2c-0.5-0.4-0.9-0.8-1.4-1.2l-35.4-35.4c-9.7-9.7-9.7-25.6 0-35.4l6-6c9.7-9.7 25.6-9.7 35.4 0l14.5 14.5 0.1-0.1 368.4 368.5s5.9 6.5 15.7 6.4c10.4-0.2 15.7-6.4 15.7-6.4l348-348.1 0.1-0.1 19-19 1.2-1.2 15.1-15.1c9.7-9.7 25.6-9.7 35.4 0l6.1 6.1c9.8 9.6 9.8 25.5 0.1 35.3zM856 390.9c0 13.8-11.3 25-25 25h-8.7c-13.8 0-25-11.3-25-25v-10.8l-0.9 0.3c0.6-2.7 0.9-5.5 0.9-8.4v-341.9c0-22-18-40-40-40H581.2v-52.9l194.8-0.2c44 0 80 36 80 80V293.8 390.9zM226.6 30.1V287.8 373c0.1 2.5 0.4 4.9 0.9 7.3l-0.9-0.3v4.8c0 13.8-11.3 25-25 25H193c-13.8 0-25-11.3-25-25V17c0-44 36-80 80-80l195.2 0.2v52.9H266.6c-22 0-40 18-40 40zM639.9 69.7c0 67.7-55.4 123-123 123H508c-67.7 0-123-55.3-123-123v-79.6h58.1v6.6c0 0.9-0.1 1.9-0.1 2.8v66.3c0 38 31 69 69 69h0.2c38 0 69-31 69-69v-66.3c0-1.3 0-2.6-0.1-3.9v-5.5h58.8v79.6z"  horiz-adv-x="1024" />

    
    <glyph glyph-name="wenben" unicode="&#59009;" d="M810.345865 10.586466H36.571429V896h773.774436v-885.413534zM75.067669 49.082707h696.781955V857.503759H75.067669v-808.421052zM194.406015 761.263158v-76.992481h461.954887v76.992481h-461.954887z m0-230.977444h461.954887v76.992481h-461.954887v-76.992481z m0-153.984962h269.473684v76.992481h-269.473684v-76.992481zM710.255639 299.308271c96.240602 0 173.233083-76.992481 173.233083-173.233083s-76.992481-173.233083-173.233083-173.233083-173.233083 76.992481-173.233083 173.233083 76.992481 173.233083 173.233083 173.233083zM710.255639-66.406015c-107.789474 0-192.481203 84.691729-192.481203 192.481203s84.691729 192.481203 192.481203 192.481203 192.481203-84.691729 192.481203-192.481203-84.691729-192.481203-192.481203-192.481203z m0 346.466165c-84.691729 0-153.984962-69.293233-153.984962-153.984962s69.293233-153.984962 153.984962-153.984962 153.984962 69.293233 153.984963 153.984962-69.293233 153.984962-153.984963 153.984962zM814.195489-20.210526l53.894737 57.744361 119.338345-107.789474-53.894736-57.744361-119.338346 107.789474z"  horiz-adv-x="1024" />

    
    <glyph glyph-name="luyin1" unicode="&#58890;" d="M512 883.2c64 0 128-25.6 172.8-70.4 38.4-44.8 70.4-102.4 70.4-172.8v-217.6c0-64-25.6-128-70.4-172.8-44.8-44.8-108.8-70.4-172.8-70.4-64 0-128 25.6-172.8 70.4-44.8 44.8-70.4 108.8-70.4 172.8V640c0 64 25.6 128 70.4 172.8C384 857.6 448 883.2 512 883.2zM345.6 556.8h326.4V640c0 44.8-19.2 83.2-51.2 115.2-25.6 32-64 51.2-108.8 51.2s-89.6-19.2-115.2-51.2c-32-25.6-51.2-70.4-51.2-115.2v-83.2z m332.8-51.2H345.6v-89.6c0-44.8 19.2-83.2 44.8-115.2 38.4-25.6 76.8-44.8 121.6-44.8s83.2 19.2 115.2 51.2 51.2 70.4 51.2 115.2V505.6z m-390.4-620.8h448c19.2 0 38.4 19.2 38.4 38.4s-19.2 38.4-38.4 38.4h-192v89.6c89.6 6.4 166.4 44.8 224 108.8 32 32 64 76.8 76.8 121.6 19.2 44.8 25.6 89.6 25.6 140.8V531.2c0 19.2-19.2 38.4-38.4 38.4s-38.4-19.2-38.4-38.4v-108.8c0-38.4-6.4-76.8-19.2-108.8-12.8-38.4-38.4-70.4-64-96-44.8-57.6-115.2-89.6-198.4-89.6-38.4 0-76.8 6.4-108.8 19.2-38.4 12.8-70.4 38.4-96 64-25.6 25.6-51.2 57.6-64 96-12.8 38.4-25.6 76.8-25.6 115.2V531.2c0 19.2-19.2 38.4-38.4 38.4s-38.4-19.2-38.4-38.4v-108.8c0-51.2 12.8-96 25.6-140.8 25.6-44.8 51.2-89.6 83.2-121.6s76.8-64 121.6-83.2c32-12.8 64-25.6 102.4-25.6v-89.6h-192c-19.2 0-38.4-19.2-38.4-38.4 6.4-19.2 19.2-38.4 44.8-38.4z"  horiz-adv-x="1024" />

    
    <glyph glyph-name="qiandaijinbi" unicode="&#58886;" d="M895.9 472.5c-45.7 60.2-106 110.8-173.2 146 29.3 28.9 45.4 63.7 45.4 100.2 0 25.6-7.7 50.4-22.8 73.5-13.7 21-33 39.7-57.3 55.5C640.2 878.9 577.7 896 512 896S383.8 878.9 336.1 847.8c-24.3-15.8-43.6-34.5-57.3-55.5-15.2-23.1-22.8-47.9-22.8-73.5 0-36.7 16.2-71.7 45.8-100.7-16.9-8.9-33.3-18.8-49.3-29.6-14.6-9.9-18.5-29.8-8.6-44.4 9.9-14.6 29.8-18.5 44.4-8.6 27.7 18.7 57.1 34.3 87.5 46.2 11.5 4.5 19.4 15.3 20.2 27.6 0.8 12.3-5.5 24-16.3 30.1-38 21.3-59.8 50.2-59.8 79.3 0 27.1 18.1 53.9 51.1 75.4C408.5 818.6 458.5 832 512 832s103.5-13.4 140.9-37.8c33-21.5 51.1-48.3 51.1-75.4 0-29-21.6-57.8-59.4-79.1-10.8-6.1-17.1-17.8-16.2-30.1s8.8-23.1 20.3-27.5C787.7 527.8 928 386.2 928 192.3c0-66.2-32.4-127.2-91.2-171.6C763.5-34.7 651.2-64 512-64c-139.1 0-251.4 29.3-324.7 84.7C128.4 65.2 96 126.2 96 192.4c0 63.5 15.6 124.9 46.2 182.5 8.3 15.6 2.4 35-13.2 43.3-15.6 8.3-35 2.4-43.3-13.2C50.1 338 32 266.5 32 192.4c0-86.7 41.5-165.8 116.7-222.7 40.9-30.9 91.2-54.9 149.7-71.3 62.4-17.5 134.2-26.4 213.6-26.4s151.3 8.9 213.7 26.3c58.4 16.4 108.8 40.3 149.6 71.2 75.3 56.9 116.7 136 116.7 222.8 0 100.5-33.2 197.4-96.1 280.2zM158.9 460.3c6.1-5.5 13.8-8.3 21.5-8.3 8.7 0 17.4 3.5 23.7 10.5 6.4 7.1 13.1 14 20 20.7 12.7 12.3 12.9 32.6 0.6 45.3s-32.6 12.9-45.3 0.6c-7.8-7.6-15.5-15.5-22.7-23.6-11.9-13.1-10.9-33.4 2.2-45.2zM352 255.2c-17.7 0-32-14.3-32-32s14.3-32 32-32h128v-96c0-17.7 14.3-32 32-32s32 14.3 32 32v96h128c17.7 0 32 14.3 32 32s-14.3 32-32 32H544v64h128c17.7 0 32 14.3 32 32s-14.3 32-32 32h-82.7l73.4 73.4c12.5 12.5 12.5 32.8 0 45.3s-32.8 12.5-45.3 0L512.1 396.5 405.7 503.4c-12.5 12.5-32.7 12.6-45.3 0.1-12.5-12.5-12.6-32.7-0.1-45.3l74.7-75.1h-83c-17.7 0-32-14.3-32-32s14.3-32 32-32h128v-64H352z"  horiz-adv-x="1024" />

    
    <glyph glyph-name="shu" unicode="&#59241;" d="M760.5 327.4l-37 46.9-162.5-128V474.2H449.9v-306.3L301.1 289.2l-37.8-46.3 186.6-152.2v-128H561V170.1zM301.1 289.2l-37.8-46.4 83.9-68.4c18.5 10.1 32.8 25.8 40.1 44.5l-86.2 70.3zM723.5 374.3l-88-69.3c6.3-19.2 19.9-35.5 37.9-46.3l87.2 68.7-37.1 46.9zM449.9 474.2v-187.8c18.2-2.5 36.8-3.8 55.5-3.8 18.8 0 37.3 1.3 55.5 3.8V474.2h-111zM207.2 580a298.3 250.7 0 1 1 596.6 0 298.3 250.7 0 1 1-596.6 0ZM648.4 350.9a93.6 84.8 0 1 1 187.2 0 93.6 84.8 0 1 1-187.2 0ZM188.6 266a93.6 84.8 0 1 1 187.2 0 93.6 84.8 0 1 1-187.2 0ZM648.1-25.9c0 10.3-8.4 18.7-18.7 18.7H381.5c-10.3 0-18.7-8.4-18.7-18.7v-18.7c0-10.3 8.4-18.7 18.7-18.7h247.9c10.3 0 18.7 8.4 18.7 18.7v18.7zM377.8 504.7c-16.7 16.7-71.2 33.3-73.9 30.5-2.8-2.8 13.8-57.2 30.5-73.9 16.7-16.7 40-20.5 52-8.5 11.9 11.9 8.1 35.2-8.6 51.9zM616.2 481.4c16.7 16.7 33.3 71.2 30.5 73.9-2.8 2.8-57.2-13.8-73.9-30.5-16.7-16.7-20.5-40-8.5-52 11.9-11.9 35.2-8.1 51.9 8.6zM471.1 675.3c0 23.6-26.8 73.9-30.7 73.9-3.9 0-30.7-50.2-30.7-73.9s13.7-42.8 30.7-42.8 30.7 19.2 30.7 42.8zM681.1 628.4c16.7 16.7 33.3 71.2 30.5 73.9-2.8 2.8-57.2-13.8-73.9-30.5-16.7-16.7-20.5-40-8.5-52 11.9-11.9 35.2-8.1 51.9 8.6z"  horiz-adv-x="1024" />

    
    <glyph glyph-name="xueren" unicode="&#59412;" d="M510.7 384.4m-448.1 0a448.1 448.1 0 1 1 896.2 0 448.1 448.1 0 1 1-896.2 0ZM772 142.5c0-43.8-116.6-79.3-260.5-79.3S251 98.7 251 142.5s116.6 79.3 260.5 79.3S772 186.3 772 142.5zM711.1 265.7c0-112.4-91.1-157.3-203.5-157.3s-203.5 44.9-203.5 157.3 91.1 203.5 203.5 203.5S711.1 378 711.1 265.7zM543.8 465.9c69.1-23.1 119-88.3 119-165.2 0-96.2-78-134.6-174.2-134.6-96.2 0-174.2 38.4-174.2 134.6 0 15.2 2 29.9 5.6 44-10.3-24.3-15.9-51-15.9-79 0-112.4 91.1-157.3 203.5-157.3s203.5 44.9 203.5 157.3c0 100-72.2 183.1-167.3 200.2zM646.4 507.6c0-76.6-62.1-138.8-138.8-138.8-76.6 0-138.8 62.1-138.8 138.8 0 76.6 62.1 138.8 138.8 138.8 76.6 0 138.8-62.1 138.8-138.8zM537.7 643.1c45.9-19 78.2-64.3 78.2-117.1 0-70-56.7-126.7-126.7-126.7-52.8 0-98 32.3-117.1 78.2 13.8-62.1 69.2-108.6 135.4-108.6 76.6 0 138.8 62.1 138.8 138.8 0.1 66.2-46.4 121.6-108.6 135.4zM311.9 419.7c2.6-4.1 3.2-8.3 3.8-12.7 0.8-6.4 2-15.1 10.4-30.7 2.1-3.9 0.9-8.9-2.7-11.2-3.6-2.3-8.3-0.9-10.4 2.9-10 18.4-11.4 29.4-12.4 36.7-0.5 3.6-3.3 14.5 0 17.4 3.3 2.8 8.1 2.2 10.7-1.4 0.2-0.4 0.4-0.7 0.6-1zM359.7 351.6c2.4-2.8 2.5-7 0.1-9.9-2.7-3.2-7.5-3.6-10.7-0.9-0.5 0.4-50.6 42.3-89.2 47.9-4.1 0.6-7.1 4.4-6.4 8.6 0.6 4.2 4.4 7.1 8.6 6.5 42.9-6.2 94.6-49.5 96.8-51.3 0.2-0.3 0.5-0.6 0.8-0.9zM709.6 426.1c-2.6-4.1-3.2-8.3-3.8-12.7-0.8-6.4-2-15.1-10.4-30.7-2.1-3.9-0.9-8.9 2.7-11.2 3.6-2.3 8.3-0.9 10.4 2.9 10 18.4 11.4 29.4 12.4 36.7 0.5 3.6 3.3 14.5 0 17.3-3.3 2.8-8.1 2.2-10.7-1.4l-0.6-0.9zM661.9 358c-2.4-2.8-2.5-7-0.1-9.9 2.7-3.2 7.5-3.6 10.7-0.9 0.5 0.4 50.6 42.3 89.2 47.9 4.1 0.6 7 4.4 6.4 8.6-0.6 4.2-4.4 7-8.6 6.4-42.9-6.2-94.6-49.5-96.8-51.3-0.3-0.2-0.6-0.5-0.8-0.8zM622.1 410.2c-9.8-56.9 57.5-138.4 57.2-160.5-0.3-22.1-81.9-63.3-64.2-27.8 17.7 35.5-70.8 132.9-36.1 180.7l43.1 7.6zM609.5 408.6c2.7-14.4 9.2-29.3 17.5-43.8-4.9 16-7.3 31.8-4.9 46.1l-12.6-2.3zM502.9 339.4c-85.9 0-139.4 40.6-142.7 43.2-13.8 10.8-16.3 30.7-5.5 44.5 10.7 13.8 30.5 16.2 44.4 5.6 4.1-3.1 92.2-67.3 224.8 2.9 15.5 8.2 34.7 2.3 42.9-13.2 8.2-15.5 2.3-34.7-13.2-42.9-56.9-29.9-107.8-40.1-150.7-40.1zM666.7 422.5c-3.2 6-8.1 10.6-13.7 13.4 2.3-2.2 4.4-4.7 5.9-7.6 7.8-14.7 2.2-33-12.5-40.7-54-28.5-102.4-38.2-143.1-38.2-81.6 0-132.5 38.6-135.6 41-13.1 10.2-15.5 29.2-5.2 42.3 0.9 1.1 1.9 2.1 3 3.1-4-2-7.7-4.9-10.6-8.7-10.8-13.8-8.3-33.7 5.5-44.5 3.3-2.6 56.8-43.2 142.7-43.2 42.9 0 93.8 10.1 150.6 40.2 15.3 8.2 21.2 27.4 13 42.9zM457.9 510.7c0-10.5-8.5-19-19-19s-19 8.5-19 19 8.5 19 19 19 19-8.5 19-19zM584.8 510.7c0-10.5-8.5-19-19-19s-19 8.5-19 19 8.5 19 19 19c10.4 0 19-8.5 19-19zM586.1 623.4l3.9 22c4.3 24.3-11.9 47.5-36.2 51.8l-22 3.9c-24.3 4.3-47.5-11.9-51.8-36.2l-3.9-22 110-19.5zM594.7 628.5l-8 1.4-108.3 19.3-12 2.2c-3.7 0.6-7.2-1.8-7.9-5.5-0.7-3.7 1.8-7.2 5.5-7.9l12-2.2 108.3-19.3 8-1.4c3.7-0.7 7.2 1.8 7.9 5.5 0.6 3.7-1.8 7.2-5.5 7.9zM590 645.4l-0.7 0.1L481 664.8l-1 0.2-1.6-8.8 1-0.2 108.4-19.3 0.6-0.1zM516.4 299.7c0-9.5-7.7-17.3-17.3-17.3-9.5 0-17.3 7.7-17.3 17.3 0 9.5 7.7 17.3 17.3 17.3 9.6 0 17.3-7.7 17.3-17.3zM516.4 236.3c0-9.5-7.7-17.3-17.3-17.3-9.5 0-17.3 7.7-17.3 17.3 0 9.5 7.7 17.3 17.3 17.3 9.6 0 17.3-7.8 17.3-17.3zM627.3 236.8c7.9 23.4-28.4 65-50.1 105.6 14.8-45.5 49.8-96.3 38-119.9-17.7-35.5 63.9 5.7 64.2 27.8 0 1.3-0.2 2.9-0.7 4.6-18.7-22.7-61.2-47.1-51.4-18.1z"  horiz-adv-x="1024" />

    
    <glyph glyph-name="shengdanshu" unicode="&#59417;" d="M510.7 384.4m-448.1 0a448.1 448.1 0 1 1 896.2 0 448.1 448.1 0 1 1-896.2 0ZM737.1 126.5c0-33.1-100.8-60-225.2-60-124.4 0-225.2 26.9-225.2 60s100.8 60 225.2 60c124.4 0 225.2-26.9 225.2-60zM605.8 177.1c0-74.2-42.1-73.5-94.1-73.5-51.9 0-94.1-0.7-94.1 73.5s42.1 203.7 94.1 203.7c52 0 94.1-129.4 94.1-203.7zM380 277.8c-38.3-73.2-65.1-75.6-92.6-68-27.6 7.6-56.9 30.8-7.2 95.6 61.7 80.3 118.2 177.2 145.7 169.6 27.6-7.7-7.6-124-45.9-197.2zM529 271.7c-3.1-80.7-26.7-92.3-55.4-94.9-28.7-2.6-65.9 8.6-48.5 85.5 21.5 95.4 31 204.2 59.7 206.8 28.6 2.6 47.2-116.7 44.2-197.4zM383.4 392.9c22.7 78.1 48.7 84.9 77.3 81.8 28.6-3 62.2-21.1 26.5-92.8-44.4-89-80.2-193.3-108.9-190.3-28.6 3-17.6 123.1 5.1 201.3zM661.9 263.8c34.8-61 57.6-62.3 80.7-55.1 23.1 7.2 47.1 27.6 2.9 81.1-55 66.3-106 146.8-129 139.7-23.2-7.3 10.6-104.8 45.4-165.7zM563.3 389.8c-22.7 78.2-48.6 84.8-77.3 81.8-28.6-3-62.2-21.2-26.5-92.9 44.4-88.9 80.1-193.3 108.8-190.3 28.8 3.2 17.8 123.2-5 201.4zM581 260.6c13.2-63.3 33.3-69.9 56.3-69 23 1 50.8 13.7 26.9 72.5-29.7 72.9-51.6 157.7-74.6 156.7-22.9-1-21.7-97-8.6-160.2zM753.7 279c2.2-19.1-11.9-28.4-25.6-32.7-20.3-6.3-40.3-5.5-69.6 41.5 15.1-46.1-9-56.6-29-57.4-19.2-0.8-36.3 4.1-48.5 47.1-0.2-28.6-4.9-48.8-16.1-50-11.9-1.3-25.2 17.3-39.9 45.7-7.3-46.7-26.5-54.7-49-56.7-24.2-2.2-54.9 6.1-48.8 60.4-14.9-28.9-28.3-47.9-40.3-46.6-11.3 1.2-16.1 21.9-16.2 50.9-26.9-39.2-47.8-39.8-69.1-33.9-18.1 5-36.9 17.2-30.7 44.8-36.2-54.8-9-75.3 16.6-82.4 22.8-6.3 45.1-5.7 73.8 36.2 0.1-30.9 5.1-53 17.2-54.3 12.8-1.4 27.1 18.9 43 49.7-6.4-57.9 26.3-66.8 52.1-64.5 24 2.2 44.4 10.7 52.3 60.5 15.7-30.3 29.8-50.1 42.5-48.8 12 1.3 17 22.9 17.2 53.4 13-45.9 31.3-51.2 51.7-50.3 21.4 0.9 47.1 12.1 31 61.3 31.3-50.2 52.6-51 74.2-44.3 21.6 6.7 43.8 24.9 11.2 70.4zM690.4 342c19.7-33.5 31.8-62.4 27.2-64.6-4.6-2.2-24.3 23.3-44 56.9-19.6 33.5-31.8 62.5-27.1 64.7 4.6 2.1 24.3-23.4 43.9-57zM328.9 342.7c-24-31.2-39.9-58.7-35.6-61.3 4.3-2.6 27.2 20.6 51.2 51.8 24 31.2 39.9 58.7 35.6 61.3-4.3 2.7-27.3-20.5-51.2-51.8zM404.9 340.4c-12.3-36.2-18.3-66.7-13.3-68 5-1.3 19 26.9 31.4 63.1 12.3 36.2 18.3 66.6 13.3 68-5.1 1.4-19.1-26.9-31.4-63.1zM469.5 329.7c-9.3-36.9-12.6-67.7-7.5-68.7 5-1 16.7 28.1 26 65 9.2 36.9 12.6 67.7 7.5 68.7s-16.7-28.1-26-65zM552.5 329.7c9.2-36.9 12.6-67.7 7.5-68.7s-16.7 28.1-26 65c-9.2 36.9-12.6 67.7-7.5 68.7s16.8-28.1 26-65zM613.7 335.4c11.1-36.6 16-67.1 11-68.4-5-1.2-18.1 27.4-29.2 63.9-11.1 36.5-16 67.1-10.9 68.4 4.9 1.2 18-27.5 29.1-63.9zM434.2 416.4c-38.3-73.2-65.1-75.6-92.7-68-27.6 7.6-56.9 30.8-7.1 95.6 61.7 80.3 118.1 177.2 145.7 169.6 27.6-7.6-7.6-123.9-45.9-197.2zM561.5 418.9c0.7-80.7-22.3-93.2-50.9-96.9-28.5-3.7-66.3 6.1-52.6 83.6 17 96.2 21.3 205.2 49.8 208.9 28.6 3.6 52.9-114.9 53.7-195.6zM421.2 531.5c22.7 78.2 48.6 84.9 77.3 81.9 28.6-3.1 62.2-21.2 26.5-92.9-44.4-88.9-80.1-193.3-108.8-190.3-28.6 3.1-17.7 123.1 5 201.3zM581.7 416.4c38.3-73.2 65.1-75.6 92.7-68 27.6 7.6 56.9 30.8 7.2 95.6-61.8 80.3-118.2 177.2-145.7 169.6-27.7-7.6 7.5-123.9 45.8-197.2zM591.8 534.1c-22.7 78.2-48.6 84.9-77.3 81.9-28.7-3-62.2-21.1-26.5-92.8 44.4-89 80.1-193.3 108.8-190.3 28.7 2.9 17.8 123-5 201.2zM695.9 422.8c2.8-23.9-14.8-34.8-31.7-39.5-18.2-5-35.9-5.3-57.3 18.5-1.8-19.4-6.6-32.2-15.4-33.2-10.9-1.1-22.9 14.2-36.1 38.4-6.6-38.3-24.3-45.9-45-48.5-22.4-2.9-50.7 3.1-52 47.4-13.4-24.9-25.6-40.7-36.7-39.6-8.8 0.9-13.6 13.6-15.4 32.7-20.2-21.1-37.4-20.5-54.7-15.7-16.9 4.7-34.5 15.6-31.7 39.5-28.4-48.8-2.8-67.6 21.5-74.4 18.5-5.1 36.7-5.7 58.3 16.8 1.9-20.4 7.1-33.9 16.4-34.8 11.7-1.3 24.7 15.6 39 42.1 1.4-47.1 31.5-53.5 55.4-50.4 22.1 2.8 40.8 11 47.9 51.7 14.1-25.8 26.8-42.1 38.4-40.9 9.4 1 14.6 14.7 16.4 35.3 22.8-25.4 41.7-25 61.1-19.7 24.3 6.6 50 25.5 21.6 74.3zM638.3 478.5c19.6-33.6 31.8-62.5 27.1-64.6-4.6-2.1-24.3 23.3-43.9 56.9-19.7 33.5-31.9 62.5-27.2 64.6 4.6 2.1 24.3-23.4 44-56.9zM574.4 479.7c9.7-36.8 13.5-67.6 8.3-68.6-5.1-1.1-17 27.9-26.7 64.8-9.7 36.8-13.5 67.6-8.3 68.6 5.1 1.1 17-28 26.7-64.8zM376.5 471.6c-23.5-31.5-39.1-59.1-34.7-61.7 4.4-2.6 26.9 20.9 50.5 52.4s39.2 59.1 34.8 61.7c-4.4 2.6-27.1-20.9-50.6-52.4zM434.4 473.4c-19.2-33.7-31-62.8-26.3-64.9 4.7-2.1 24 23.6 43.2 57.3 19.2 33.7 31 62.8 26.4 64.9-4.7 2.1-24-23.5-43.3-57.3zM512.4 475.2c-2-4.4-4.5-7.1-7.8-7.6-3.5-0.5-7 1.1-10.4 4.4-0.1-5.8 0-11.9 0.2-18.2 1.2-33.9 6.5-61.3 11.9-61.2 5.3 0.1 8.7 27.6 7.5 61.5-0.3 7.4-0.8 14.5-1.4 21.1zM506.5 525c-25.8-60.7-57.5-61.7-92.8-54.2-35.4 7.5-95.7 47.3-35.2 81.4 60.5 34 93.2 146 128.6 138.4 35.3-7.5 25.2-104.9-0.6-165.6zM501 525c25.8-60.7 57.4-61.7 92.8-54.2s95.7 47.3 35.2 81.4c-60.5 34-93.2 146-128.6 138.4-35.3-7.5-25.2-104.9 0.6-165.6zM644.9 540.6c-8-18.1-35.9-32.9-55.7-37.1-26.8-5.7-51.4-6.2-72.6 23.2-2.2-14.8-5.4-25.1-12.1-26.2-6.8-1.1-13.6 6.4-19.7 18.7-19.8-21.7-42.3-20.8-66.6-15.7-19.7 4.2-47.7 19-55.7 37.1-31.4-31 19.8-63.2 51.1-69.8 25.6-5.5 49.2-6.4 70.1 16.5 6.4-12.9 13.6-20.8 20.8-19.7 7 1.1 10.5 11.9 12.7 27.6 22.4-30.9 48.3-30.4 76.5-24.4 31.5 6.6 82.6 38.8 51.2 69.8zM551.7 620.4c19.7-33.6 54.4-62.5 49.7-64.6-4.6-2.2-46.8 23.3-66.4 56.9-19.6 33.5-31.8 67.5-27.2 69.6 4.6 2.1 24.2-28.4 43.9-61.9zM537.4 588.7c15.9-35.1 50-59.4 45.1-61.1-4.8-1.8-46.8 19.7-62.7 54.8-15.8 35.1-24.2 70-19.4 71.7 4.9 1.7 21.1-30.4 37-65.4zM448.8 580.5c24.5 30.9 32.5 68.1 28.2 70.8-4.2 2.7-19.2-30.2-43.7-61.1-24.5-30.9-57.8-48.1-53.6-50.8 4.3-2.6 44.6 10.2 69.1 41.1zM482.3 577.9c14.3 35.6 10.9 73.4 5.9 75-4.9 1.6-9.4-33.7-23.7-69.3-14.4-35.6-41.3-60.1-36.3-61.7 4.9-1.6 39.8 20.4 54.1 56zM595.2 602.8c-7.9 3.4-12.9 11.9-18.1 17.8-7.1 8.1-15.2 14.5-21.7 23.1-13 17.5-25.4 36.7-36.7 55.1-14.4 23.5-45-30.9-56.3-42.8-6.7-7.2-12.7-14.6-18.3-22.5-6.8-9.6-12.3-22.5-23.8-28.4-14.3-7.5-1.4-27.3 13-19.8 9.5 4.9 16 12.2 21.8 20-1-2.6-2-5.2-2.9-7.9-3.2-9.2 6.7-15.3 15.8-14.1 17.7 2.4 16.4 18.3 22.8 29.5 1.5 2.6 3.2 5 5 7.3-1.9-6.5-3.4-12.9-0.2-19.6 4.3-9.1 16.8-11.6 23.5-2.7 3.5 4.7 5 10 5.8 15.4 4.3-4.9 9.4-9.1 13.9-13.8 7.1-7.6 17.5-2.8 20.5 4.5 7.9-8.1 11.4-16 22.8-20.9 15-6.3 28.1 13.4 13.1 19.8zM456.1 609.8c0.9 2.4 1.8 4.8 2.8 7.2-5.4-7.2-11.6-13.8-20.4-18.4-6.7-3.4-13.2-0.6-16.2 3.9-6.2-8 4.5-20.9 16.2-14.9 7.6 3.9 13.2 9.3 18 15.3-1.1 2-1.3 4.3-0.4 6.9zM496.9 630.5c-1.7-2.1-3.2-4.3-4.6-6.7-5.9-10.2-4.7-24.7-21.4-26.9-5.3-0.7-10.9 1.3-13.7 4.8-0.4-1-0.8-1.9-1.1-3-2.9-8.4 6.3-14 14.8-12.9 16.6 2.1 15.4 16.7 21.4 26.9 0.9 1.5 1.9 3 2.9 4.4-0.7 4.6 0.4 9 1.7 13.4zM577.9 596.6c-10.7 4.4-14 11.7-21.4 19-2.8-6.7-12.6-11.1-19.3-4.1-4.2 4.3-9 8.2-13 12.7-0.8-5-2.1-9.8-5.5-14.1-6.3-8.1-18-5.9-22 2.5-0.4 0.8-0.7 1.7-1 2.5-1-4.5-1.3-9 1-13.5 4-8.3 15.8-10.6 22-2.5 3.3 4.3 4.7 9.1 5.5 14 4-4.4 8.8-8.3 13-12.7 6.7-6.9 16.4-2.5 19.3 4.2 7.4-7.4 10.7-14.6 21.4-19.1 12.2-5.1 23.1 8 16.4 15.3-3.3-4.2-9.6-7.1-16.4-4.2z"  horiz-adv-x="1024" />

    
    <glyph glyph-name="tangguo" unicode="&#59419;" d="M510.7 384.4m-448.1 0a448.1 448.1 0 1 1 896.2 0 448.1 448.1 0 1 1-896.2 0ZM832.1 168.3c0-47-142.9-85.1-319.3-85.1-176.3 0-319.3 38.1-319.3 85.1 0 47 142.9 85.1 319.3 85.1 176.3 0 319.3-38.1 319.3-85.1zM513.9 400.5c-23.4 23.4-243.9-46.8-269.2-72.1-47.6-47.6 151.1-243.1 197.1-197.1 15.3 15.4 95.1 246.3 72.1 269.2zM514.6 379.8c-61.7-0.6-226.2-55.2-247.9-76.8-21.5-21.5 7.4-73.3 49.7-119.4-54.9 50.6-100.7 119.1-75.1 144.7 25.3 25.3 245.8 95.6 269.2 72.1 3.3-3.1 4.4-10.4 4.1-20.6zM413.1 156.6c13.2 13.2 74.1 186 76.2 248.5 10.4 0.1 17.9-1.3 21.3-4.7 23-23-56.8-253.9-72.1-269.2-25.2-25.2-96.1 22-147.4 77.7 47.1-43.3 100.8-73.5 122-52.3zM398.2 378.9c-0.9 5.1 2.3 10.1 7.4 11.1 5.1 1 10.1-2.3 11.1-7.4 13.3-68.2 87.2-88.7 90.2-89.1 5.1-0.8-8.4 5.9-9.2 0.8 0-0.9-83.7 3.4-99.5 84.6zM520.1 406.7c-23.4 23.5 46.9 244 72.2 269.3 47.6 47.6 243.1-151.1 197.1-197.1-15.4-15.4-246.3-95.1-269.3-72.2zM537.5 402.7c0.6 61.7 55.2 226.3 76.8 247.9 21.5 21.5 73.3-7.4 119.4-49.7C683.1 655.8 614.6 701.6 589 676c-25.3-25.3-95.6-245.8-72.2-269.2 3.2-3.3 10.6-4.4 20.7-4.1zM760.7 504.2c-13.2-13.2-186-74.1-248.6-76.1-0.1-10.4 1.3-17.9 4.6-21.3 23-23 253.9 56.8 269.2 72.1 25.2 25.2-22 96.1-77.7 147.3 43.5-47 73.7-100.8 52.5-122zM541.7 522.4c-5.1 0.9-10.1-2.3-11.1-7.4-1-5.1 2.3-10.1 7.5-11.1 68.2-13.3 88.7-87.2 89.1-90.2 0.8-5.1-5.9 8.4-0.8 9.2 0.8 0.1-3.4 83.7-84.7 99.5zM595.5 481.4c43.1-43.1 43.1-113.1 0-156.2-43.2-43.2-113.1-43.1-156.3 0-43.2 43.2-43.2 113.1 0 156.3 43.1 43.1 113.1 43.1 156.3-0.1zM492.4 499.9c17.4-4.1 33.9-12.8 47.5-26.4 38.8-38.8 38.8-101.7 0-140.5-13.6-13.6-30.1-22.3-47.5-26.4 32.4-7.6 67.8 1.1 93.1 26.4 38.8 38.8 38.8 101.7 0 140.5-25.3 25.3-60.7 34-93.1 26.4zM471.5 404.9c-2.5-23.1-16.7-40.5-31.8-38.9-15 1.6-25.2 21.7-22.7 44.8 2.5 23.1 16.7 40.5 31.8 38.9 15.1-1.7 25.2-21.7 22.7-44.8z"  horiz-adv-x="1024" />

    
    <glyph glyph-name="shengdanlaoren" unicode="&#59421;" d="M510.7 384.4m-448.1 0a448.1 448.1 0 1 1 896.2 0 448.1 448.1 0 1 1-896.2 0ZM714.4 192.8c28.7 5.8 48.5 17.9 48.5 31.9 0 19.6-38.8 35.6-86.7 35.6-47.9 0-86.7-15.9-86.7-35.6 0-2.1 0.5-4.1 1.3-6-25 2.4-51.7 3.8-79.4 3.8-143.8 0-260.3-35.5-260.3-79.3s116.6-79.3 260.3-79.3 260.3 35.5 260.3 79.3c0.1 18.7-21.4 36-57.3 49.6zM529.4 698.3c118.6 1.6 213.2-159.7 213.2-292.2 0-26.6-38.3-43.2-49.8-8.3-46.3 140.7-181.5 106.1-222 120-40.3 13.9-16.9 179.5 58.6 180.5zM656.5 465.4c0-34.9-90.2-63.2-201.5-63.2s-201.5 28.3-201.5 63.2c0 113.2 155.2 257.9 306.8 229.3 31.5-5.9 86.7-36.4 112-80.8-76.5 62.2-42.7 22.8-24-29.9 18.7-52.6 8.2-105.2 8.2-118.6zM656.5 465.4c0-34.9-90.2-63.2-201.5-63.2s-201.5 28.3-201.5 63.2c0 34.9 90.2 86 201.5 86 111.3 0.1 201.5-51.1 201.5-86zM615.4 465.4c0-25.4-71.8-46-160.4-46-88.6 0-160.4 20.6-160.4 46s71.8 45.9 160.4 45.9c88.6 0.1 160.4-20.5 160.4-45.9zM636.7 386.2c0-120.6-81.5-218.4-182-218.4s-182 97.8-182 218.4c0 120.6 81.5 218.4 182 218.4s182-97.7 182-218.4zM454.7 244.3c-84.8 0-155.2 23.2-170 106.9-1.9-12.2-2.9-24.8-2.9-37.7 0-114.6 77.4-207.5 172.9-207.5s172.9 92.9 172.9 207.5c0 12.9-1 25.5-2.9 37.7-14.8-83.8-85.3-106.9-170-106.9zM517.2 276.2c0-34.2-27.7-61.9-61.9-61.9s-61.9 27.7-61.9 61.9 27.7 61.9 61.9 61.9c34.2-0.1 61.9-27.8 61.9-61.9zM454.7 120.5c-92.8 0-168.6 87.8-172.7 198 0-1.7-0.2-3.4-0.2-5.1 0-114.6 77.4-207.5 172.9-207.5s172.9 92.9 172.9 207.5c0 1.7-0.2 3.4-0.2 5.1-4.2-110.2-79.9-198-172.7-198zM517.2 283.4c0-34.2-27.7-61.9-61.9-61.9s-61.9 27.7-61.9 61.9 27.7 61.9 61.9 61.9 61.9-27.7 61.9-61.9zM412.6 406.2c0-10.3-8.3-18.6-18.6-18.6s-18.6 8.3-18.6 18.6 8.3 18.6 18.6 18.6 18.6-8.3 18.6-18.6zM536.7 406.2c0-10.3-8.3-18.6-18.6-18.6s-18.6 8.3-18.6 18.6 8.3 18.6 18.6 18.6 18.6-8.3 18.6-18.6zM279.2 370.7c24.2-65.4 129-46.8 147.5-28.1 1.6-1.7 3.4-3.3 5.3-4.8 4.8-1.6 9.8-2.7 15.1-2.9 15-0.6 28.5 4.9 37.6 13.7 17-20.1 120-47 149.3 16.4 13.8 20.5 42.3-28.8 11.3-71.8-25.3-35-77.3-50.7-118.9-49.1-25.7 1-49.3 10.9-68.8 27.1-22.7-19.5-50.7-30.5-80.6-29.4-41.6 1.7-92.2 21.4-114.7 58.3-27.6 45.2 4.6 92.1 16.9 70.6zM496.7 351.9c0-19.6-18.8-35.5-42.1-35.5s-42.1 15.9-42.1 35.5 18.9 35.5 42.1 35.5c23.3 0 42.1-15.9 42.1-35.5zM651.9 362.3c3.6-14.6 2-35-11.9-54.2-24.6-34.1-75.2-49.4-115.6-47.8-25 1-48 10.6-66.9 26.3-22.1-18.9-49.3-29.7-78.4-28.6-40.5 1.6-89.7 20.8-111.5 56.7-11.4 18.7-12.2 37.5-8.6 51.6-8.5-13.8-12.5-40.3 3.4-66.3 22.4-36.9 73.1-56.7 114.7-58.3 30-1.2 57.9 9.9 80.6 29.4 19.5-16.2 43.1-26 68.8-27.1 41.5-1.6 93.6 14.1 118.9 49.1 19.1 26.7 15.4 55.9 6.5 69.2zM418.2 453.1c0.3-6-4.2-11.2-10.3-11.5l-50.9-2.9c-6-0.4-11.2 4.2-11.5 10.3-0.3 6 4.3 11.2 10.3 11.5l50.9 2.9c6 0.4 11.1-4.2 11.5-10.3zM491.2 453.1c-0.3-6 4.2-11.2 10.3-11.5l50.9-2.9c6-0.4 11.2 4.2 11.5 10.3 0.3 6-4.3 11.2-10.3 11.5l-50.9 2.9c-6 0.4-11.2-4.2-11.5-10.3zM672.3 614c-25.4 44.4-80.6 74.8-112 80.8-151.6 28.6-306.8-116.1-306.8-229.3 0 34.9 90.2 86 201.5 86s201.5-51.1 201.5-86c0 13.3 10.5 66-8.2 118.7-18.7 52.6-52.6 92 24 29.8zM266.8 502.1s41.7 142.2 195.8 181.5c0 0-80.1-51-90.9-132.2-0.1 0.1-60.2-13.3-104.9-49.3zM455 551.5c-111.3 0-201.5-51.1-201.5-86 0-9.3 6.5-18.2 18-26.1 1 12.2 4.4 22.3 14.4 29.7 12 17.1 79.1 48.3 168.8 48.3 91.4 0 159.6-24.9 168.7-49 11.6-5.3 17.5-13.4 20.5-24.9 8.1 6.9 12.6 14.3 12.6 22 0 34.8-90.2 86-201.5 86zM625.9 460.1l-2.7 8.4c-9.4 24-77.5 48.7-168.6 48.7-88.6 0-155-30.4-168.2-47.7-1.3-3.9-2.6-7.8-3.7-11.8 1 1 1.9 2 3.2 2.9 12 17.1 79.1 48.3 168.8 48.3 88.8 0.1 159.1-25.2 171.2-48.8zM774.8 393.1c0-26.4-21.4-47.8-47.8-47.8s-47.8 21.4-47.8 47.8 21.4 47.8 47.8 47.8 47.8-21.4 47.8-47.8z"  horiz-adv-x="1024" />

    
    <glyph glyph-name="xingxing" unicode="&#59423;" d="M510.7 384.4m-448.1 0a448.1 448.1 0 1 1 896.2 0 448.1 448.1 0 1 1-896.2 0ZM770.8 124c0-32.8-116.1-59.4-259.3-59.4-143.2 0-259.3 26.6-259.3 59.4s116.1 59.4 259.3 59.4c143.2-0.1 259.3-26.7 259.3-59.4zM511 234.8c-27.8 0-154.7-117.2-183.4-98-28.7 19.2 42.8 179.1 36.6 204.7-6.2 25.6-161 101.2-149.9 144.1 11.1 42.9 182 16.9 206 28.5 24 11.6 53 187.1 90.7 187.1s62.2-163.5 90.7-187.1c28.6-23.6 186.8 14.9 206-28.5 19.2-43.4-141-115.7-149.9-144.1-8.9-28.5 68.5-182.5 36.6-204.7-32-22.3-155.6 98-183.4 98zM604.4 496.2c-16.2 14.7-87.9-82-76.3-97.6 11.6-15.6 270.1 48.6 260.2 80.7-12.1 39.5-167.7 2.2-183.9 16.9zM433.5 498.5c-24.6-14.2-188 17.9-200-11.8s252.1-100.8 270.1-88.1c17.9 12.7 38.8 282.2 7.3 282.2s-52.8-168.1-77.4-182.3zM503.5 373.9c4.6-12.4-142.1-245.4-164-220.7-21.9 24.7 51.3 173.9 49 191.3-2.3 17.5 110.4 41.7 115 29.4zM633.4 344.5c6 16.5-99.7 43.1-107.6 29.3-7.9-13.8 131-234.7 156.6-220.7 25.6 14.1-55 174.9-49 191.4z"  horiz-adv-x="1024" />

    
    <glyph glyph-name="mjiantou-copy" unicode="&#59179;" d="M664.13270595 384l-265.01218847 264.99563945 23.04005495 23.05660397 288.05287992-288.05287993-288.05287991-288.05287991-23.04005496 23.05660397z"  horiz-adv-x="1024" />

    
    <glyph glyph-name="kechengbiao1" unicode="&#58949;" d="M1546.422857 588.251429c0 16.274286-16.274286 49.005714-40.96 57.234285-24.502857 16.274286-49.005714 24.502857-73.691428 32.731429V743.68c0 40.96-32.731429 73.691429-81.737143 73.691429h-171.885715c-40.96 0-81.737143-32.731429-81.737142-73.691429v-57.234286h-8.228572c-16.274286-8.228571-40.96-16.274286-57.234286-24.502857-73.691429 32.731429-147.2 49.005714-220.891428 49.005714-147.2 0-253.622857-65.462857-261.851429-73.691428-24.502857-8.228571-32.731429-32.731429-32.731428-57.234286v-548.205714c0-24.502857 8.228571-40.96 32.731428-57.234286 16.274286-16.274286 40.96-16.274286 65.462857-16.274286 0 0 122.697143 24.502857 237.165715 24.502858 65.462857 0 114.468571-8.228571 163.657143-24.502858 8.228571 0 16.274286-8.228571 24.502857-8.228571h24.502857s114.468571 32.731429 179.931428 32.731429c65.462857 0 139.154286-16.274286 179.931429-24.502858h49.005714c16.274286 0 32.731429 0 40.96 8.228572 24.502857 16.274286 40.96 40.96 40.96 65.462857l-7.862857 556.251429z m0 0M1161.874286 743.68c0 8.228571 8.228571 16.274286 16.274285 16.274286h171.885715c8.228571 0 16.274286-8.228571 16.274285-16.274286V334.628571L1309.257143 359.314286c-32.731429 16.274286-57.234286 16.274286-89.965714 0l-57.234286-32.731429V743.68z m0 0M1480.96 15.542857h-49.005714C1390.994286 23.771429 1317.302857 40.228571 1243.794286 40.228571c-73.691429 0-196.388571-32.731429-196.388572-32.731428h-16.274285c-57.234286 16.274286-106.422857 24.502857-179.931429 24.502857-122.697143 0-253.622857-24.502857-253.622857-24.502857h-16.274286c-8.228571 0-8.228571 8.228571-8.228571 16.274286V580.022857c0 8.228571 8.228571 8.228571 8.228571 16.274286 8.228571 8.228571 98.194286 57.234286 229.12 57.234286 65.462857 0 139.154286-16.274286 204.434286-49.005715l16.274286-8.228571 16.274285 8.228571c8.228571 8.228571 32.731429 8.228571 57.234286 16.274286v-392.594286l147.2 65.462857c16.274286 8.228571 24.502857 8.228571 40.96 0l147.2-65.462857V604.708571c16.274286-8.228571 32.731429-16.274286 49.005714-16.274285 8.228571 0 8.228571-8.228571 8.228572-16.274286V23.771429c-8.045714 0-16.274286 0-16.274286-8.228572z m0 0M924.708571 482.011429H695.588571c-16.274286 0-24.502857-8.228571-24.502857-24.502858s16.274286-24.502857 24.502857-24.502857h229.12c16.457143 0 24.502857 8.228571 24.502858 24.502857s-8.228571 24.502857-24.502858 24.502858z m0-106.422858H695.588571c-16.274286 0-24.502857-8.228571-24.502857-24.502857s16.274286-24.502857 24.502857-24.502857h229.12c16.457143 0 24.502857 8.228571 24.502858 24.502857s-8.228571 24.502857-24.502858 24.502857z m0-106.422857H695.588571c-16.274286 0-24.502857-8.228571-24.502857-24.502857s16.274286-24.502857 24.502857-24.502857h229.12c16.457143 0 24.502857 8.228571 24.502858 24.502857 0 16.457143-8.228571 24.502857-24.502858 24.502857z m0 0"  horiz-adv-x="2073" />

    
    </font>
</defs>
</svg>
