<?xml version="1.0" standalone="no"?><!DOCTYPE svg PUBLIC "-//W3C//DTD SVG 1.1//EN" "http://www.w3.org/Graphics/SVG/1.1/DTD/svg11.dtd"><svg t="1520756075011" class="icon" style="" viewBox="0 0 1024 1024" version="1.1" xmlns="http://www.w3.org/2000/svg" p-id="511" xmlns:xlink="http://www.w3.org/1999/xlink" width="200" height="200"><defs><style type="text/css"></style></defs><path d="M810.520419 241.185085c-24.064069 0-43.566238-19.485797-43.566238-43.534516 0-24.035416 19.503193-43.521213 43.566238-43.521213 24.048719 0 43.552935 19.485797 43.552935 43.521213C854.072331 221.700311 834.569138 241.185085 810.520419 241.185085zM698.789709 178.102351c-23.011086 0-41.674145-18.646686-41.674145-41.643446 0-22.99676 18.662035-41.644469 41.674145-41.644469 23.00904 0 41.658795 18.647709 41.658795 41.644469C740.448504 159.454642 721.798748 178.102351 698.789709 178.102351zM579.474252 159.165046c-25.453718 0-46.086641-20.615527-46.086641-46.052872 0-25.424042 20.632923-46.053895 46.086641-46.053895 25.452695 0 46.082548 20.629853 46.082548 46.053895C625.557824 138.549519 604.926948 159.165046 579.474252 159.165046zM456.997803 171.784458c-28.931936 0-52.386114-23.437805-52.386114-52.356438 0-28.916587 23.454178-52.370765 52.386114-52.370765 28.949332 0 52.402487 23.453155 52.402487 52.370765C509.400291 148.346653 485.947136 171.784458 456.997803 171.784458zM275.865443 271.461645c-51.608402 0-93.435019-41.796942-93.435019-93.359294 0-51.577702 41.826618-93.374644 93.435019-93.374644 51.593052 0 93.421716 41.795918 93.421716 93.374644C369.286136 229.664703 327.457472 271.461645 275.865443 271.461645zM580.720639 956.464861c-22.737864 0-45.080731-5.838985-64.6136-16.887622-37.217646-21.050432-62.065568-49.204655-73.855078-83.677794-11.05887-32.340569-10.585079-70.582545 1.409093-113.660666 1.851161-6.632047 2.90312-12.431124 3.220345-17.742083 0.925069-15.286148 1.387603-28.011984 1.413186-38.924521 0.071631-22.487154-8.019651-44.923142-22.785959-63.190181-29.067013-35.9467-53.163827-72.055083-71.618131-107.319238-21.608134-41.273009-24.898063-89.918939-9.022491-133.459594 19.665899-53.949726 45.930075-93.759407 80.292698-121.702829 39.489386-32.112372 90.702792-48.494481 152.216797-48.690956l0.358157 0c6.589069 0 13.192464 0.523933 19.623943 1.556449 53.472865 8.469905 96.235808 26.741038 130.695644 55.850006 30.061666 25.394367 53.045123 58.56893 70.26225 101.419877 12.730952 31.692816 19.639293 66.288752 20.535709 102.8259 3.465938 141.277654-11.511171 248.637824-45.785789 328.21523-16.166191 37.535895-37.008892 69.052702-61.948911 93.678566-23.708981 23.410176-51.852972 41.324174-83.648119 53.244668C612.49532 953.615976 596.765057 956.464861 580.720639 956.464861zM577.735655 247.02407l-0.248663 0c-100.700493 0.320295-162.066119 45.609781-198.968587 146.845463-12.431124 34.095539-9.842159 72.213695 7.104815 104.582917 17.362436 33.177634 40.151465 67.296709 67.737754 101.410668 19.928888 24.653493 30.848589 55.126528 30.750351 85.808318-0.027629 11.598152-0.511653 25.00551-1.478677 40.974203-0.468674 7.861038-1.932002 16.111956-4.470825 25.209148-20.530592 73.741491-2.871397 123.489522 55.57883 156.547429 14.164604 8.012488 30.410614 12.246929 46.979988 12.246929 11.733229 0 23.230074-2.081405 34.17331-6.185886 56.447617-21.162995 97.425913-62.885236 125.280308-127.556141 31.739888-73.691349 46.164413-179.057095 42.87346-313.168536-0.789992-32.246425-6.834662-62.644759-17.965164-90.352821-31.555693-78.538751-86.643336-121.516588-173.364443-135.252427C587.185888 247.405763 582.364069 247.02407 577.735655 247.02407z" p-id="512"></path></svg>