<?xml version="1.0" standalone="no"?><!DOCTYPE svg PUBLIC "-//W3C//DTD SVG 1.1//EN" "http://www.w3.org/Graphics/SVG/1.1/DTD/svg11.dtd"><svg t="1529720447039" class="icon" style="" viewBox="0 0 1024 1024" version="1.1" xmlns="http://www.w3.org/2000/svg" p-id="2473" xmlns:xlink="http://www.w3.org/1999/xlink" width="200" height="200"><defs><style type="text/css"></style></defs><path d="M802.133333 128H221.866667C170.666667 128 128 170.666667 128 221.866667V256h768v-34.133333c0-51.2-42.666667-93.866667-93.866667-93.866667z m-170.666666-59.733333L648.533333 170.666667H375.466667L392.533333 68.266667h238.933334zM640 0H384c-25.6 0-51.2 25.6-51.2 51.2l-25.6 128c0 25.6 17.066667 51.2 42.666667 51.2h315.733333c25.6 0 42.666667-25.6 42.666667-51.2L691.2 51.2C691.2 25.6 665.6 0 640 0z m179.2 324.266667H204.8c-34.133333 0-59.733333 25.6-59.733333 59.733333l51.2 580.266667c0 34.133333 34.133333 59.733333 68.266666 59.733333h477.866667c34.133333 0 68.266667-25.6 68.266667-59.733333l51.2-580.266667c17.066667-34.133333-8.533333-59.733333-42.666667-59.733333zM384 896H290.133333l-34.133333-443.733333H384v443.733333z m196.266667 0H452.266667V452.266667h128v443.733333z m153.6 0H640V452.266667h128l-34.133333 443.733333z" fill="#1296db" p-id="2474"></path></svg>