<?xml version="1.0" standalone="no"?><!DOCTYPE svg PUBLIC "-//W3C//DTD SVG 1.1//EN" "http://www.w3.org/Graphics/SVG/1.1/DTD/svg11.dtd"><svg t="1529663451322" class="icon" style="" viewBox="0 0 1024 1024" version="1.1" xmlns="http://www.w3.org/2000/svg" p-id="8223" xmlns:xlink="http://www.w3.org/1999/xlink" width="200" height="200"><defs><style type="text/css"></style></defs><path d="M508.2112 1018.311111C229.023289 1018.311111 1.900089 791.176533 1.900089 512 1.900089 232.812089 229.023289 5.688889 508.2112 5.688889s506.311111 227.1232 506.311111 506.311111c0 279.176533-227.134578 506.311111-506.311111 506.311111z" fill="#B2B2B2" p-id="8224"></path><path d="M508.2112 62.577778c-247.808 0-449.422222 201.614222-449.422222 449.422222s201.614222 449.422222 449.422222 449.422222c247.819378 0 449.422222-201.614222 449.422222-449.422222s-201.614222-449.422222-449.422222-449.422222z" fill="#FFFFFF" p-id="8225"></path><path d="M668.922311 739.555556h-45.511111c-12.515556 0-22.755556-10.24-22.755556-22.755556V307.2c0-12.515556 10.24-22.755556 22.755556-22.755556h45.511111c12.515556 0 22.755556 10.24 22.755556 22.755556v409.6c0 12.515556-10.24 22.755556-22.755556 22.755556zM393.0112 739.555556h-45.511111c-12.515556 0-22.755556-10.24-22.755556-22.755556V307.2c0-12.515556 10.24-22.755556 22.755556-22.755556h45.511111c12.515556 0 22.755556 10.24 22.755556 22.755556v409.6c0 12.515556-10.24 22.755556-22.755556 22.755556z" fill="#47CC47" p-id="8226"></path></svg>