<?xml version="1.0" standalone="no"?><!DOCTYPE svg PUBLIC "-//W3C//DTD SVG 1.1//EN" "http://www.w3.org/Graphics/SVG/1.1/DTD/svg11.dtd"><svg t="1529663444855" class="icon" style="" viewBox="0 0 1024 1024" version="1.1" xmlns="http://www.w3.org/2000/svg" p-id="8112" xmlns:xlink="http://www.w3.org/1999/xlink" width="200" height="200"><defs><style type="text/css"></style></defs><path d="M512 512m-477.866667 0a477.866667 477.866667 0 1 0 955.733334 0 477.866667 477.866667 0 1 0-955.733334 0Z" fill="#FFFFFF" p-id="8113"></path><path d="M512 1018.311111C232.812089 1018.311111 5.688889 791.176533 5.688889 512 5.688889 232.812089 232.812089 5.688889 512 5.688889 791.176533 5.688889 1018.311111 232.812089 1018.311111 512c0 279.176533-227.134578 506.311111-506.311111 506.311111z m0-955.733333C264.192 62.577778 62.577778 264.192 62.577778 512S264.192 961.422222 512 961.422222 961.422222 759.808 961.422222 512 759.808 62.577778 512 62.577778z" fill="#B2B2B2" p-id="8114"></path><path d="M356.6592 339.512889v344.974222c0 30.867911 33.416533 50.164622 60.142933 34.724978l298.757689-172.487111c26.737778-15.428267 26.737778-54.021689 0-69.449956l-298.757689-172.487111c-26.7264-15.439644-60.142933 3.857067-60.142933 34.724978z" fill="#47CC47" p-id="8115"></path></svg>